<svg width="384" height="800" viewBox="0 0 384 800" 
         xmlns="http://www.w3.org/2000/svg">

    <!-- CSS Styles using DaisyUI-compatible variables -->
    <style>
        <![CDATA[
        .corsica-polygon {
            fill: var(--color-success, #36d399);
            stroke: var(--color-success-content, #003a2a);
            stroke-width: 2;
            opacity: 0.8;
        }

        .full-square {
            fill: var(--color-info, #3abff8);
            stroke: var(--color-error, #f87272);
            stroke-width: 0.8;
            opacity: 0.4;
        }

        .partial-square {
            fill: var(--color-warning, #fbbd23);
            stroke: var(--color-error, #f87272);
            stroke-width: 0.8;
            opacity: 0.4;
        }

        .grid-line {
            stroke: var(--color-error, #f87272);
            stroke-width: 1.2;
            stroke-dasharray: 4,2;
            opacity: 0.8;
        }

        .legend-box {
            fill: var(--color-base-100, #ffffff);
            stroke: var(--color-base-300, #d1d5db);
            stroke-width: 1.5;
            opacity: 0.95;
        }

        .legend-text {
            font-family: 'Segoe UI', Tahoma, Geneva, Verdana, sans-serif;
            font-size: 18px;
            font-weight: 600;
            fill: var(--color-base-content, #1f2937);
        }

        .legend-text-small {
            font-family: 'Segoe UI', Tahoma, Geneva, Verdana, sans-serif;
            font-size: 16px;
            font-weight: 500;
            fill: var(--color-base-content, #1f2937);
        }
        ]]>
    </style>

    <!-- Apply aspect ratio correction like matplotlib's ax.set_aspect(1.0 / lat_correction) -->
    <g transform="scale(0.7409576373537781, 1)">
        <!-- Grid lines (background) -->
        <line x1="-4.7" y1="0" x2="-4.7" y2="800" class="grid-line" /><line x1="52.8" y1="0" x2="52.8" y2="800" class="grid-line" /><line x1="110.4" y1="0" x2="110.4" y2="800" class="grid-line" /><line x1="168.0" y1="0" x2="168.0" y2="800" class="grid-line" /><line x1="225.5" y1="0" x2="225.5" y2="800" class="grid-line" /><line x1="283.1" y1="0" x2="283.1" y2="800" class="grid-line" /><line x1="340.7" y1="0" x2="340.7" y2="800" class="grid-line" /><line x1="398.3" y1="0" x2="398.3" y2="800" class="grid-line" /><line x1="455.8" y1="0" x2="455.8" y2="800" class="grid-line" /><line x1="513.4" y1="0" x2="513.4" y2="800" class="grid-line" /><line x1="0" y1="800.0" x2="590.4" y2="800.0" class="grid-line" /><line x1="0" y1="757.3" x2="590.4" y2="757.3" class="grid-line" /><line x1="0" y1="714.7" x2="590.4" y2="714.7" class="grid-line" /><line x1="0" y1="672.0" x2="590.4" y2="672.0" class="grid-line" /><line x1="0" y1="629.4" x2="590.4" y2="629.4" class="grid-line" /><line x1="0" y1="586.7" x2="590.4" y2="586.7" class="grid-line" /><line x1="0" y1="544.1" x2="590.4" y2="544.1" class="grid-line" /><line x1="0" y1="501.4" x2="590.4" y2="501.4" class="grid-line" /><line x1="0" y1="458.7" x2="590.4" y2="458.7" class="grid-line" /><line x1="0" y1="416.1" x2="590.4" y2="416.1" class="grid-line" /><line x1="0" y1="373.4" x2="590.4" y2="373.4" class="grid-line" /><line x1="0" y1="330.8" x2="590.4" y2="330.8" class="grid-line" /><line x1="0" y1="288.1" x2="590.4" y2="288.1" class="grid-line" /><line x1="0" y1="245.5" x2="590.4" y2="245.5" class="grid-line" /><line x1="0" y1="202.8" x2="590.4" y2="202.8" class="grid-line" /><line x1="0" y1="160.1" x2="590.4" y2="160.1" class="grid-line" /><line x1="0" y1="117.5" x2="590.4" y2="117.5" class="grid-line" /><line x1="0" y1="74.8" x2="590.4" y2="74.8" class="grid-line" /><line x1="0" y1="32.2" x2="590.4" y2="32.2" class="grid-line" /><line x1="0" y1="-10.5" x2="590.4" y2="-10.5" class="grid-line" />

        <!-- Squares -->
        
                <rect x="-4.7" y="416.1" 
                      width="57.6" height="42.7" 
                      class="partial-square" />
                <rect x="-4.7" y="373.4" 
                      width="57.6" height="42.7" 
                      class="partial-square" />
                <rect x="-4.7" y="330.8" 
                      width="57.6" height="42.7" 
                      class="partial-square" />
                <rect x="-4.7" y="288.1" 
                      width="57.6" height="42.7" 
                      class="partial-square" />
                <rect x="52.8" y="586.7" 
                      width="57.6" height="42.7" 
                      class="partial-square" />
                <rect x="52.8" y="544.1" 
                      width="57.6" height="42.7" 
                      class="partial-square" />
                <rect x="52.8" y="501.4" 
                      width="57.6" height="42.7" 
                      class="partial-square" />
                <rect x="52.8" y="458.7" 
                      width="57.6" height="42.7" 
                      class="partial-square" />
                <rect x="52.8" y="416.1" 
                      width="57.6" height="42.7" 
                      class="partial-square" />
                <rect x="52.8" y="373.4" 
                      width="57.6" height="42.7" 
                      class="full-square" />
                <rect x="52.8" y="330.8" 
                      width="57.6" height="42.7" 
                      class="full-square" />
                <rect x="52.8" y="288.1" 
                      width="57.6" height="42.7" 
                      class="partial-square" />
                <rect x="52.8" y="245.5" 
                      width="57.6" height="42.7" 
                      class="partial-square" />
                <rect x="52.8" y="202.8" 
                      width="57.6" height="42.7" 
                      class="partial-square" />
                <rect x="110.4" y="714.7" 
                      width="57.6" height="42.7" 
                      class="partial-square" />
                <rect x="110.4" y="672.0" 
                      width="57.6" height="42.7" 
                      class="partial-square" />
                <rect x="110.4" y="629.4" 
                      width="57.6" height="42.7" 
                      class="partial-square" />
                <rect x="110.4" y="586.7" 
                      width="57.6" height="42.7" 
                      class="partial-square" />
                <rect x="110.4" y="544.1" 
                      width="57.6" height="42.7" 
                      class="partial-square" />
                <rect x="110.4" y="501.4" 
                      width="57.6" height="42.7" 
                      class="partial-square" />
                <rect x="110.4" y="458.7" 
                      width="57.6" height="42.7" 
                      class="full-square" />
                <rect x="110.4" y="416.1" 
                      width="57.6" height="42.7" 
                      class="full-square" />
                <rect x="110.4" y="373.4" 
                      width="57.6" height="42.7" 
                      class="full-square" />
                <rect x="110.4" y="330.8" 
                      width="57.6" height="42.7" 
                      class="full-square" />
                <rect x="110.4" y="288.1" 
                      width="57.6" height="42.7" 
                      class="full-square" />
                <rect x="110.4" y="245.5" 
                      width="57.6" height="42.7" 
                      class="full-square" />
                <rect x="110.4" y="202.8" 
                      width="57.6" height="42.7" 
                      class="partial-square" />
                <rect x="110.4" y="160.1" 
                      width="57.6" height="42.7" 
                      class="partial-square" />
                <rect x="168.0" y="714.7" 
                      width="57.6" height="42.7" 
                      class="partial-square" />
                <rect x="168.0" y="672.0" 
                      width="57.6" height="42.7" 
                      class="full-square" />
                <rect x="168.0" y="629.4" 
                      width="57.6" height="42.7" 
                      class="full-square" />
                <rect x="168.0" y="586.7" 
                      width="57.6" height="42.7" 
                      class="full-square" />
                <rect x="168.0" y="544.1" 
                      width="57.6" height="42.7" 
                      class="full-square" />
                <rect x="168.0" y="501.4" 
                      width="57.6" height="42.7" 
                      class="full-square" />
                <rect x="168.0" y="458.7" 
                      width="57.6" height="42.7" 
                      class="full-square" />
                <rect x="168.0" y="416.1" 
                      width="57.6" height="42.7" 
                      class="full-square" />
                <rect x="168.0" y="373.4" 
                      width="57.6" height="42.7" 
                      class="full-square" />
                <rect x="168.0" y="330.8" 
                      width="57.6" height="42.7" 
                      class="full-square" />
                <rect x="168.0" y="288.1" 
                      width="57.6" height="42.7" 
                      class="full-square" />
                <rect x="168.0" y="245.5" 
                      width="57.6" height="42.7" 
                      class="full-square" />
                <rect x="168.0" y="202.8" 
                      width="57.6" height="42.7" 
                      class="full-square" />
                <rect x="168.0" y="160.1" 
                      width="57.6" height="42.7" 
                      class="partial-square" />
                <rect x="225.5" y="757.3" 
                      width="57.6" height="42.7" 
                      class="partial-square" />
                <rect x="225.5" y="714.7" 
                      width="57.6" height="42.7" 
                      class="partial-square" />
                <rect x="225.5" y="672.0" 
                      width="57.6" height="42.7" 
                      class="full-square" />
                <rect x="225.5" y="629.4" 
                      width="57.6" height="42.7" 
                      class="full-square" />
                <rect x="225.5" y="586.7" 
                      width="57.6" height="42.7" 
                      class="full-square" />
                <rect x="225.5" y="544.1" 
                      width="57.6" height="42.7" 
                      class="full-square" />
                <rect x="225.5" y="501.4" 
                      width="57.6" height="42.7" 
                      class="full-square" />
                <rect x="225.5" y="458.7" 
                      width="57.6" height="42.7" 
                      class="full-square" />
                <rect x="225.5" y="416.1" 
                      width="57.6" height="42.7" 
                      class="full-square" />
                <rect x="225.5" y="373.4" 
                      width="57.6" height="42.7" 
                      class="full-square" />
                <rect x="225.5" y="330.8" 
                      width="57.6" height="42.7" 
                      class="full-square" />
                <rect x="225.5" y="288.1" 
                      width="57.6" height="42.7" 
                      class="full-square" />
                <rect x="225.5" y="245.5" 
                      width="57.6" height="42.7" 
                      class="full-square" />
                <rect x="225.5" y="202.8" 
                      width="57.6" height="42.7" 
                      class="full-square" />
                <rect x="225.5" y="160.1" 
                      width="57.6" height="42.7" 
                      class="partial-square" />
                <rect x="225.5" y="117.5" 
                      width="57.6" height="42.7" 
                      class="partial-square" />
                <rect x="283.1" y="757.3" 
                      width="57.6" height="42.7" 
                      class="partial-square" />
                <rect x="283.1" y="714.7" 
                      width="57.6" height="42.7" 
                      class="partial-square" />
                <rect x="283.1" y="672.0" 
                      width="57.6" height="42.7" 
                      class="full-square" />
                <rect x="283.1" y="629.4" 
                      width="57.6" height="42.7" 
                      class="full-square" />
                <rect x="283.1" y="586.7" 
                      width="57.6" height="42.7" 
                      class="full-square" />
                <rect x="283.1" y="544.1" 
                      width="57.6" height="42.7" 
                      class="full-square" />
                <rect x="283.1" y="501.4" 
                      width="57.6" height="42.7" 
                      class="full-square" />
                <rect x="283.1" y="458.7" 
                      width="57.6" height="42.7" 
                      class="full-square" />
                <rect x="283.1" y="416.1" 
                      width="57.6" height="42.7" 
                      class="full-square" />
                <rect x="283.1" y="373.4" 
                      width="57.6" height="42.7" 
                      class="full-square" />
                <rect x="283.1" y="330.8" 
                      width="57.6" height="42.7" 
                      class="full-square" />
                <rect x="283.1" y="288.1" 
                      width="57.6" height="42.7" 
                      class="full-square" />
                <rect x="283.1" y="245.5" 
                      width="57.6" height="42.7" 
                      class="full-square" />
                <rect x="283.1" y="202.8" 
                      width="57.6" height="42.7" 
                      class="full-square" />
                <rect x="283.1" y="160.1" 
                      width="57.6" height="42.7" 
                      class="full-square" />
                <rect x="283.1" y="117.5" 
                      width="57.6" height="42.7" 
                      class="partial-square" />
                <rect x="340.7" y="714.7" 
                      width="57.6" height="42.7" 
                      class="partial-square" />
                <rect x="340.7" y="672.0" 
                      width="57.6" height="42.7" 
                      class="partial-square" />
                <rect x="340.7" y="629.4" 
                      width="57.6" height="42.7" 
                      class="partial-square" />
                <rect x="340.7" y="586.7" 
                      width="57.6" height="42.7" 
                      class="full-square" />
                <rect x="340.7" y="544.1" 
                      width="57.6" height="42.7" 
                      class="full-square" />
                <rect x="340.7" y="501.4" 
                      width="57.6" height="42.7" 
                      class="full-square" />
                <rect x="340.7" y="458.7" 
                      width="57.6" height="42.7" 
                      class="full-square" />
                <rect x="340.7" y="416.1" 
                      width="57.6" height="42.7" 
                      class="full-square" />
                <rect x="340.7" y="373.4" 
                      width="57.6" height="42.7" 
                      class="full-square" />
                <rect x="340.7" y="330.8" 
                      width="57.6" height="42.7" 
                      class="full-square" />
                <rect x="340.7" y="288.1" 
                      width="57.6" height="42.7" 
                      class="full-square" />
                <rect x="340.7" y="245.5" 
                      width="57.6" height="42.7" 
                      class="full-square" />
                <rect x="340.7" y="202.8" 
                      width="57.6" height="42.7" 
                      class="full-square" />
                <rect x="340.7" y="160.1" 
                      width="57.6" height="42.7" 
                      class="full-square" />
                <rect x="340.7" y="117.5" 
                      width="57.6" height="42.7" 
                      class="partial-square" />
                <rect x="340.7" y="74.8" 
                      width="57.6" height="42.7" 
                      class="partial-square" />
                <rect x="340.7" y="32.2" 
                      width="57.6" height="42.7" 
                      class="partial-square" />
                <rect x="340.7" y="-10.5" 
                      width="57.6" height="42.7" 
                      class="partial-square" />
                <rect x="398.3" y="629.4" 
                      width="57.6" height="42.7" 
                      class="partial-square" />
                <rect x="398.3" y="586.7" 
                      width="57.6" height="42.7" 
                      class="partial-square" />
                <rect x="398.3" y="544.1" 
                      width="57.6" height="42.7" 
                      class="partial-square" />
                <rect x="398.3" y="501.4" 
                      width="57.6" height="42.7" 
                      class="partial-square" />
                <rect x="398.3" y="458.7" 
                      width="57.6" height="42.7" 
                      class="partial-square" />
                <rect x="398.3" y="416.1" 
                      width="57.6" height="42.7" 
                      class="full-square" />
                <rect x="398.3" y="373.4" 
                      width="57.6" height="42.7" 
                      class="full-square" />
                <rect x="398.3" y="330.8" 
                      width="57.6" height="42.7" 
                      class="full-square" />
                <rect x="398.3" y="288.1" 
                      width="57.6" height="42.7" 
                      class="full-square" />
                <rect x="398.3" y="245.5" 
                      width="57.6" height="42.7" 
                      class="full-square" />
                <rect x="398.3" y="202.8" 
                      width="57.6" height="42.7" 
                      class="full-square" />
                <rect x="398.3" y="160.1" 
                      width="57.6" height="42.7" 
                      class="partial-square" />
                <rect x="398.3" y="117.5" 
                      width="57.6" height="42.7" 
                      class="partial-square" />
                <rect x="398.3" y="74.8" 
                      width="57.6" height="42.7" 
                      class="partial-square" />
                <rect x="398.3" y="32.2" 
                      width="57.6" height="42.7" 
                      class="partial-square" />
                <rect x="398.3" y="-10.5" 
                      width="57.6" height="42.7" 
                      class="partial-square" />
                <rect x="455.8" y="458.7" 
                      width="57.6" height="42.7" 
                      class="partial-square" />
                <rect x="455.8" y="416.1" 
                      width="57.6" height="42.7" 
                      class="partial-square" />
                <rect x="455.8" y="373.4" 
                      width="57.6" height="42.7" 
                      class="partial-square" />
                <rect x="455.8" y="330.8" 
                      width="57.6" height="42.7" 
                      class="partial-square" />
                <rect x="455.8" y="288.1" 
                      width="57.6" height="42.7" 
                      class="partial-square" />
                <rect x="455.8" y="245.5" 
                      width="57.6" height="42.7" 
                      class="partial-square" />
                <rect x="455.8" y="202.8" 
                      width="57.6" height="42.7" 
                      class="partial-square" />
                <rect x="455.8" y="160.1" 
                      width="57.6" height="42.7" 
                      class="partial-square" />

        <!-- Corsica polygons (foreground) -->
        <path d="M 350.8,789.2 L 348.3,790.5 L 343.7,787.4 L 345.7,785.1 L 352.1,787.2 L 350.8,789.2 Z" class="corsica-polygon" /><path d="M 413.0,555.4 L 412.9,561.5 L 414.9,572.6 L 409.1,583.7 L 411.5,587.9 L 411.0,593.4 L 415.4,598.5 L 414.4,604.7 L 414.8,612.0 L 412.5,622.5 L 413.6,625.4 L 411.8,634.0 L 402.9,636.2 L 398.8,640.6 L 400.4,644.5 L 406.0,650.8 L 404.8,652.8 L 395.0,660.8 L 390.5,658.6 L 387.1,660.6 L 386.5,663.7 L 390.0,665.3 L 386.5,669.6 L 381.9,667.7 L 377.4,670.2 L 368.4,664.4 L 367.4,669.6 L 363.1,672.7 L 359.0,673.6 L 356.3,679.6 L 358.1,682.9 L 362.5,685.8 L 368.5,680.8 L 370.7,677.4 L 374.7,675.6 L 381.2,677.0 L 386.8,680.6 L 397.0,679.4 L 389.8,688.4 L 387.4,689.6 L 388.3,693.9 L 383.9,697.2 L 375.9,698.2 L 365.6,703.9 L 358.7,711.0 L 351.8,711.0 L 352.1,714.6 L 356.9,715.6 L 353.8,722.4 L 349.8,724.5 L 353.1,727.0 L 358.7,727.7 L 357.0,735.9 L 353.8,736.9 L 354.0,741.9 L 348.4,741.4 L 337.5,750.5 L 328.5,752.5 L 328.2,755.6 L 330.9,760.6 L 330.5,768.3 L 338.1,762.6 L 348.0,759.2 L 345.2,766.3 L 341.2,768.1 L 334.3,775.7 L 332.9,779.0 L 327.4,783.8 L 326.5,787.7 L 316.6,788.8 L 307.9,788.5 L 305.1,782.4 L 301.7,779.4 L 291.0,778.7 L 279.7,774.3 L 266.9,775.5 L 265.7,771.8 L 267.7,766.7 L 274.1,763.2 L 271.9,760.5 L 279.6,754.8 L 278.9,753.3 L 269.6,752.4 L 266.8,749.1 L 261.4,752.7 L 257.7,752.3 L 253.9,748.5 L 255.8,740.9 L 255.8,736.8 L 246.6,744.4 L 240.6,744.4 L 231.0,740.5 L 228.6,736.6 L 223.5,736.7 L 219.1,732.2 L 213.4,735.1 L 203.3,729.0 L 193.3,730.2 L 190.2,727.5 L 185.1,726.4 L 182.1,721.9 L 175.2,721.1 L 167.9,722.9 L 166.6,720.9 L 169.6,717.2 L 164.6,714.0 L 158.7,715.7 L 149.1,716.8 L 147.4,714.0 L 152.4,709.5 L 152.0,705.9 L 147.5,703.2 L 138.6,703.4 L 134.8,699.7 L 122.4,697.9 L 120.9,695.1 L 128.7,690.9 L 119.6,684.7 L 117.0,681.3 L 120.2,679.6 L 123.5,673.9 L 124.5,663.9 L 129.0,662.2 L 138.1,663.7 L 140.4,660.9 L 153.4,655.7 L 160.7,656.1 L 164.4,653.1 L 166.1,645.7 L 171.8,642.8 L 178.9,641.5 L 182.4,639.4 L 182.0,635.4 L 168.4,634.9 L 164.9,632.5 L 147.3,631.7 L 142.1,627.6 L 133.8,623.9 L 124.8,626.8 L 115.0,624.9 L 120.5,615.6 L 118.3,611.9 L 114.8,610.9 L 108.9,612.4 L 97.8,616.6 L 92.5,617.5 L 88.6,619.8 L 81.9,618.3 L 84.0,613.4 L 79.3,611.0 L 71.9,611.7 L 67.1,609.9 L 60.8,610.8 L 61.4,607.1 L 65.4,605.5 L 73.1,608.3 L 82.5,603.2 L 86.7,601.8 L 94.7,594.6 L 93.3,589.3 L 89.7,588.5 L 90.5,584.3 L 99.8,583.8 L 103.3,578.1 L 107.7,579.0 L 114.2,577.9 L 115.9,571.4 L 119.3,567.3 L 114.0,566.0 L 112.5,561.5 L 120.3,560.4 L 123.4,556.9 L 123.2,551.8 L 118.9,545.0 L 129.3,539.9 L 125.7,531.7 L 121.1,526.3 L 114.8,522.9 L 109.3,524.3 L 106.4,520.4 L 101.8,520.2 L 99.4,522.5 L 99.9,527.6 L 95.1,528.3 L 90.6,531.5 L 82.0,532.3 L 74.2,531.8 L 66.5,533.5 L 63.5,532.4 L 52.7,531.2 L 40.2,534.8 L 38.0,529.7 L 43.5,522.7 L 42.9,517.1 L 37.4,516.9 L 35.8,511.7 L 32.0,510.7 L 31.1,504.6 L 40.1,502.1 L 51.6,503.9 L 54.9,503.6 L 65.7,496.8 L 65.5,492.5 L 60.4,491.6 L 59.8,484.1 L 65.3,480.3 L 75.9,475.5 L 81.4,475.9 L 92.4,472.2 L 91.2,468.4 L 100.0,469.1 L 102.7,464.7 L 99.0,458.8 L 89.8,458.4 L 90.1,455.6 L 87.4,449.9 L 82.7,446.9 L 85.3,443.1 L 80.6,438.3 L 80.4,435.2 L 75.3,434.0 L 71.3,438.3 L 66.8,437.8 L 61.7,439.5 L 55.4,431.2 L 50.8,431.8 L 45.2,430.4 L 37.8,424.8 L 31.1,426.8 L 24.8,427.3 L 26.0,424.2 L 30.2,420.7 L 28.2,417.9 L 22.4,414.4 L 28.4,410.9 L 27.6,407.4 L 18.0,408.5 L 16.7,404.6 L 25.0,404.0 L 22.8,399.2 L 24.3,391.0 L 18.7,390.0 L 21.4,386.1 L 17.5,384.5 L 20.6,381.6 L 19.1,379.5 L 8.6,380.1 L 4.7,377.3 L 9.1,374.9 L 12.3,376.8 L 20.4,375.5 L 22.8,372.9 L 28.0,372.7 L 41.0,367.6 L 45.8,369.3 L 52.9,367.1 L 64.2,365.7 L 67.0,364.4 L 75.3,363.7 L 75.8,356.8 L 69.1,354.2 L 68.1,349.1 L 61.8,345.5 L 56.1,345.2 L 52.0,346.7 L 45.2,340.7 L 38.0,342.5 L 31.9,338.9 L 35.3,335.7 L 43.3,333.4 L 46.4,331.2 L 45.6,327.4 L 41.8,327.2 L 33.2,321.4 L 29.1,321.5 L 24.4,324.0 L 20.7,328.3 L 16.5,330.7 L 11.0,330.8 L 13.6,325.7 L 10.3,324.0 L 12.2,315.8 L 6.2,314.7 L 8.4,308.9 L 13.0,313.0 L 17.3,313.0 L 22.8,310.7 L 20.5,307.9 L 26.1,306.1 L 31.3,307.5 L 37.3,305.6 L 34.2,299.1 L 38.6,297.6 L 35.0,294.6 L 37.1,291.2 L 44.2,289.2 L 51.7,290.4 L 55.9,292.9 L 59.2,291.7 L 62.6,286.7 L 61.7,282.4 L 55.9,279.0 L 65.0,277.9 L 65.4,271.7 L 70.9,266.9 L 68.5,263.0 L 56.4,263.9 L 56.7,262.1 L 63.7,255.1 L 64.6,244.6 L 68.5,243.0 L 72.8,244.0 L 79.0,239.7 L 85.4,240.5 L 89.3,238.4 L 85.3,234.9 L 89.4,232.5 L 88.3,228.4 L 91.3,224.9 L 87.6,221.5 L 85.6,215.5 L 92.0,212.0 L 91.7,216.7 L 93.3,222.6 L 98.5,219.7 L 103.3,219.5 L 109.1,224.0 L 112.9,225.3 L 122.0,224.2 L 129.7,218.7 L 127.9,212.8 L 133.0,209.3 L 132.0,204.9 L 138.9,201.5 L 144.0,203.6 L 151.9,199.4 L 158.6,200.6 L 163.3,198.2 L 162.9,195.8 L 168.8,190.7 L 176.3,191.6 L 180.4,190.7 L 183.7,186.9 L 191.4,186.1 L 194.9,188.3 L 203.3,187.8 L 210.7,185.5 L 222.8,184.6 L 227.4,185.3 L 232.3,183.5 L 235.5,179.8 L 244.3,178.4 L 250.6,176.0 L 251.8,173.6 L 248.0,166.6 L 250.5,159.6 L 256.4,160.2 L 260.2,156.7 L 263.1,150.2 L 269.8,149.9 L 272.7,145.7 L 278.4,144.5 L 281.5,142.1 L 286.9,142.8 L 301.5,139.8 L 311.6,144.1 L 319.0,144.6 L 325.5,140.9 L 328.8,141.9 L 333.3,147.6 L 343.0,148.3 L 345.3,156.7 L 349.4,157.3 L 354.5,162.0 L 357.2,168.3 L 361.4,169.2 L 366.0,164.6 L 371.3,162.3 L 375.2,158.0 L 374.6,150.7 L 383.3,143.3 L 385.6,139.2 L 383.1,129.6 L 383.3,121.1 L 384.7,112.2 L 382.4,107.8 L 376.4,103.4 L 374.3,98.6 L 369.8,93.3 L 379.8,82.0 L 383.6,78.7 L 378.7,75.4 L 377.0,67.0 L 375.1,62.5 L 390.0,54.7 L 391.1,49.6 L 387.7,48.5 L 392.3,40.4 L 387.3,37.8 L 386.2,35.0 L 388.5,30.0 L 384.5,25.2 L 385.6,21.9 L 383.9,17.6 L 392.5,11.8 L 399.0,12.8 L 402.4,11.1 L 414.0,12.3 L 418.4,11.9 L 422.2,9.5 L 426.5,13.7 L 430.1,14.8 L 436.2,19.6 L 442.0,21.5 L 437.5,27.8 L 436.5,31.9 L 439.2,39.1 L 444.7,45.3 L 443.9,49.7 L 445.4,53.6 L 446.9,66.6 L 448.6,71.2 L 446.5,74.6 L 450.9,79.3 L 451.8,86.0 L 450.1,90.4 L 452.5,94.4 L 455.6,107.3 L 455.0,112.1 L 446.0,123.7 L 443.7,128.3 L 444.4,132.0 L 441.0,137.8 L 441.5,140.2 L 438.5,148.5 L 436.7,160.1 L 433.9,163.6 L 433.8,169.6 L 435.2,174.9 L 441.3,185.4 L 447.3,192.7 L 466.9,212.5 L 471.4,219.1 L 475.0,230.0 L 475.6,240.4 L 473.5,250.2 L 474.0,259.1 L 478.4,270.2 L 478.6,279.8 L 479.8,285.6 L 477.5,292.5 L 474.7,308.6 L 475.0,315.1 L 476.9,325.1 L 479.4,332.8 L 483.1,340.2 L 487.1,353.4 L 487.3,359.9 L 484.4,374.2 L 484.3,383.8 L 486.4,392.3 L 485.0,414.2 L 486.0,421.2 L 482.9,439.2 L 474.1,447.1 L 460.6,462.2 L 442.6,483.3 L 431.6,493.4 L 423.4,502.0 L 417.8,511.0 L 417.6,517.1 L 419.0,524.0 L 417.2,530.7 L 412.9,537.2 L 410.5,547.9 L 413.0,555.4 Z" class="corsica-polygon" />
    </g>

</svg>