<?xml version="1.0" encoding="utf-8" standalone="no"?>
<!DOCTYPE svg PUBLIC "-//W3C//DTD SVG 1.1//EN"
  "http://www.w3.org/Graphics/SVG/1.1/DTD/svg11.dtd">
<svg xmlns:xlink="http://www.w3.org/1999/xlink" width="911.725312pt" height="1143.904687pt" viewBox="0 0 911.725312 1143.904687" xmlns="http://www.w3.org/2000/svg" version="1.1">
 <metadata>
  <rdf:RDF xmlns:dc="http://purl.org/dc/elements/1.1/" xmlns:cc="http://creativecommons.org/ns#" xmlns:rdf="http://www.w3.org/1999/02/22-rdf-syntax-ns#">
   <cc:Work>
    <dc:type rdf:resource="http://purl.org/dc/dcmitype/StillImage"/>
    <dc:date>2025-08-08T19:15:50.270346</dc:date>
    <dc:format>image/svg+xml</dc:format>
    <dc:creator>
     <cc:Agent>
      <dc:title>Matplotlib v3.10.5, https://matplotlib.org/</dc:title>
     </cc:Agent>
    </dc:creator>
   </cc:Work>
  </rdf:RDF>
 </metadata>
 <defs>
  <style type="text/css">*{stroke-linejoin: round; stroke-linecap: butt}</style>
 </defs>
 <g id="figure_1">
  <g id="patch_1">
   <path d="M 0 1143.904687 
L 911.725312 1143.904687 
L 911.725312 0 
L 0 0 
z
" style="fill: #ffffff"/>
  </g>
  <g id="axes_1">
   <g id="patch_2">
    <path d="M 209.484095 1102.477187 
L 702.241217 1102.477187 
L 702.241217 41.597187 
L 209.484095 41.597187 
z
" style="fill: #ffffff"/>
   </g>
   <g id="matplotlib.axis_1">
    <g id="xtick_1">
     <g id="line2d_1">
      <path d="M 246.656374 1102.477187 
L 246.656374 41.597187 
" clip-path="url(#pf9b76d651f)" style="fill: none; stroke: #808080; stroke-opacity: 0.2; stroke-width: 0.5; stroke-linecap: square"/>
     </g>
     <g id="line2d_2">
      <defs>
       <path id="mc84f9ec656" d="M 0 0 
L 0 3.5 
" style="stroke: #000000; stroke-width: 0.8"/>
      </defs>
      <g>
       <use xlink:href="#mc84f9ec656" x="246.656374" y="1102.477187" style="stroke: #000000; stroke-width: 0.8"/>
      </g>
     </g>
     <g id="text_1">
      <!-- 8.6 -->
      <g transform="translate(238.704811 1117.075625) scale(0.1 -0.1)">
       <defs>
        <path id="DejaVuSans-38" d="M 2034 2216 
Q 1584 2216 1326 1975 
Q 1069 1734 1069 1313 
Q 1069 891 1326 650 
Q 1584 409 2034 409 
Q 2484 409 2743 651 
Q 3003 894 3003 1313 
Q 3003 1734 2745 1975 
Q 2488 2216 2034 2216 
z
M 1403 2484 
Q 997 2584 770 2862 
Q 544 3141 544 3541 
Q 544 4100 942 4425 
Q 1341 4750 2034 4750 
Q 2731 4750 3128 4425 
Q 3525 4100 3525 3541 
Q 3525 3141 3298 2862 
Q 3072 2584 2669 2484 
Q 3125 2378 3379 2068 
Q 3634 1759 3634 1313 
Q 3634 634 3220 271 
Q 2806 -91 2034 -91 
Q 1263 -91 848 271 
Q 434 634 434 1313 
Q 434 1759 690 2068 
Q 947 2378 1403 2484 
z
M 1172 3481 
Q 1172 3119 1398 2916 
Q 1625 2713 2034 2713 
Q 2441 2713 2670 2916 
Q 2900 3119 2900 3481 
Q 2900 3844 2670 4047 
Q 2441 4250 2034 4250 
Q 1625 4250 1398 4047 
Q 1172 3844 1172 3481 
z
" transform="scale(0.015625)"/>
        <path id="DejaVuSans-2e" d="M 684 794 
L 1344 794 
L 1344 0 
L 684 0 
L 684 794 
z
" transform="scale(0.015625)"/>
        <path id="DejaVuSans-36" d="M 2113 2584 
Q 1688 2584 1439 2293 
Q 1191 2003 1191 1497 
Q 1191 994 1439 701 
Q 1688 409 2113 409 
Q 2538 409 2786 701 
Q 3034 994 3034 1497 
Q 3034 2003 2786 2293 
Q 2538 2584 2113 2584 
z
M 3366 4563 
L 3366 3988 
Q 3128 4100 2886 4159 
Q 2644 4219 2406 4219 
Q 1781 4219 1451 3797 
Q 1122 3375 1075 2522 
Q 1259 2794 1537 2939 
Q 1816 3084 2150 3084 
Q 2853 3084 3261 2657 
Q 3669 2231 3669 1497 
Q 3669 778 3244 343 
Q 2819 -91 2113 -91 
Q 1303 -91 875 529 
Q 447 1150 447 2328 
Q 447 3434 972 4092 
Q 1497 4750 2381 4750 
Q 2619 4750 2861 4703 
Q 3103 4656 3366 4563 
z
" transform="scale(0.015625)"/>
       </defs>
       <use xlink:href="#DejaVuSans-38"/>
       <use xlink:href="#DejaVuSans-2e" transform="translate(63.623047 0)"/>
       <use xlink:href="#DejaVuSans-36" transform="translate(95.410156 0)"/>
      </g>
     </g>
    </g>
    <g id="xtick_2">
     <g id="line2d_3">
      <path d="M 339.706337 1102.477187 
L 339.706337 41.597187 
" clip-path="url(#pf9b76d651f)" style="fill: none; stroke: #808080; stroke-opacity: 0.2; stroke-width: 0.5; stroke-linecap: square"/>
     </g>
     <g id="line2d_4">
      <g>
       <use xlink:href="#mc84f9ec656" x="339.706337" y="1102.477187" style="stroke: #000000; stroke-width: 0.8"/>
      </g>
     </g>
     <g id="text_2">
      <!-- 8.8 -->
      <g transform="translate(331.754774 1117.075625) scale(0.1 -0.1)">
       <use xlink:href="#DejaVuSans-38"/>
       <use xlink:href="#DejaVuSans-2e" transform="translate(63.623047 0)"/>
       <use xlink:href="#DejaVuSans-38" transform="translate(95.410156 0)"/>
      </g>
     </g>
    </g>
    <g id="xtick_3">
     <g id="line2d_5">
      <path d="M 432.7563 1102.477187 
L 432.7563 41.597187 
" clip-path="url(#pf9b76d651f)" style="fill: none; stroke: #808080; stroke-opacity: 0.2; stroke-width: 0.5; stroke-linecap: square"/>
     </g>
     <g id="line2d_6">
      <g>
       <use xlink:href="#mc84f9ec656" x="432.7563" y="1102.477187" style="stroke: #000000; stroke-width: 0.8"/>
      </g>
     </g>
     <g id="text_3">
      <!-- 9.0 -->
      <g transform="translate(424.804738 1117.075625) scale(0.1 -0.1)">
       <defs>
        <path id="DejaVuSans-39" d="M 703 97 
L 703 672 
Q 941 559 1184 500 
Q 1428 441 1663 441 
Q 2288 441 2617 861 
Q 2947 1281 2994 2138 
Q 2813 1869 2534 1725 
Q 2256 1581 1919 1581 
Q 1219 1581 811 2004 
Q 403 2428 403 3163 
Q 403 3881 828 4315 
Q 1253 4750 1959 4750 
Q 2769 4750 3195 4129 
Q 3622 3509 3622 2328 
Q 3622 1225 3098 567 
Q 2575 -91 1691 -91 
Q 1453 -91 1209 -44 
Q 966 3 703 97 
z
M 1959 2075 
Q 2384 2075 2632 2365 
Q 2881 2656 2881 3163 
Q 2881 3666 2632 3958 
Q 2384 4250 1959 4250 
Q 1534 4250 1286 3958 
Q 1038 3666 1038 3163 
Q 1038 2656 1286 2365 
Q 1534 2075 1959 2075 
z
" transform="scale(0.015625)"/>
        <path id="DejaVuSans-30" d="M 2034 4250 
Q 1547 4250 1301 3770 
Q 1056 3291 1056 2328 
Q 1056 1369 1301 889 
Q 1547 409 2034 409 
Q 2525 409 2770 889 
Q 3016 1369 3016 2328 
Q 3016 3291 2770 3770 
Q 2525 4250 2034 4250 
z
M 2034 4750 
Q 2819 4750 3233 4129 
Q 3647 3509 3647 2328 
Q 3647 1150 3233 529 
Q 2819 -91 2034 -91 
Q 1250 -91 836 529 
Q 422 1150 422 2328 
Q 422 3509 836 4129 
Q 1250 4750 2034 4750 
z
" transform="scale(0.015625)"/>
       </defs>
       <use xlink:href="#DejaVuSans-39"/>
       <use xlink:href="#DejaVuSans-2e" transform="translate(63.623047 0)"/>
       <use xlink:href="#DejaVuSans-30" transform="translate(95.410156 0)"/>
      </g>
     </g>
    </g>
    <g id="xtick_4">
     <g id="line2d_7">
      <path d="M 525.806264 1102.477187 
L 525.806264 41.597187 
" clip-path="url(#pf9b76d651f)" style="fill: none; stroke: #808080; stroke-opacity: 0.2; stroke-width: 0.5; stroke-linecap: square"/>
     </g>
     <g id="line2d_8">
      <g>
       <use xlink:href="#mc84f9ec656" x="525.806264" y="1102.477187" style="stroke: #000000; stroke-width: 0.8"/>
      </g>
     </g>
     <g id="text_4">
      <!-- 9.2 -->
      <g transform="translate(517.854701 1117.075625) scale(0.1 -0.1)">
       <defs>
        <path id="DejaVuSans-32" d="M 1228 531 
L 3431 531 
L 3431 0 
L 469 0 
L 469 531 
Q 828 903 1448 1529 
Q 2069 2156 2228 2338 
Q 2531 2678 2651 2914 
Q 2772 3150 2772 3378 
Q 2772 3750 2511 3984 
Q 2250 4219 1831 4219 
Q 1534 4219 1204 4116 
Q 875 4013 500 3803 
L 500 4441 
Q 881 4594 1212 4672 
Q 1544 4750 1819 4750 
Q 2544 4750 2975 4387 
Q 3406 4025 3406 3419 
Q 3406 3131 3298 2873 
Q 3191 2616 2906 2266 
Q 2828 2175 2409 1742 
Q 1991 1309 1228 531 
z
" transform="scale(0.015625)"/>
       </defs>
       <use xlink:href="#DejaVuSans-39"/>
       <use xlink:href="#DejaVuSans-2e" transform="translate(63.623047 0)"/>
       <use xlink:href="#DejaVuSans-32" transform="translate(95.410156 0)"/>
      </g>
     </g>
    </g>
    <g id="xtick_5">
     <g id="line2d_9">
      <path d="M 618.856227 1102.477187 
L 618.856227 41.597187 
" clip-path="url(#pf9b76d651f)" style="fill: none; stroke: #808080; stroke-opacity: 0.2; stroke-width: 0.5; stroke-linecap: square"/>
     </g>
     <g id="line2d_10">
      <g>
       <use xlink:href="#mc84f9ec656" x="618.856227" y="1102.477187" style="stroke: #000000; stroke-width: 0.8"/>
      </g>
     </g>
     <g id="text_5">
      <!-- 9.4 -->
      <g transform="translate(610.904664 1117.075625) scale(0.1 -0.1)">
       <defs>
        <path id="DejaVuSans-34" d="M 2419 4116 
L 825 1625 
L 2419 1625 
L 2419 4116 
z
M 2253 4666 
L 3047 4666 
L 3047 1625 
L 3713 1625 
L 3713 1100 
L 3047 1100 
L 3047 0 
L 2419 0 
L 2419 1100 
L 313 1100 
L 313 1709 
L 2253 4666 
z
" transform="scale(0.015625)"/>
       </defs>
       <use xlink:href="#DejaVuSans-39"/>
       <use xlink:href="#DejaVuSans-2e" transform="translate(63.623047 0)"/>
       <use xlink:href="#DejaVuSans-34" transform="translate(95.410156 0)"/>
      </g>
     </g>
    </g>
    <g id="text_6">
     <!-- Longitude (°) -->
     <g style="fill: #2f4f4f" transform="translate(409.858437 1133.793125) scale(0.14 -0.14)">
      <defs>
       <path id="DejaVuSans-4c" d="M 628 4666 
L 1259 4666 
L 1259 531 
L 3531 531 
L 3531 0 
L 628 0 
L 628 4666 
z
" transform="scale(0.015625)"/>
       <path id="DejaVuSans-6f" d="M 1959 3097 
Q 1497 3097 1228 2736 
Q 959 2375 959 1747 
Q 959 1119 1226 758 
Q 1494 397 1959 397 
Q 2419 397 2687 759 
Q 2956 1122 2956 1747 
Q 2956 2369 2687 2733 
Q 2419 3097 1959 3097 
z
M 1959 3584 
Q 2709 3584 3137 3096 
Q 3566 2609 3566 1747 
Q 3566 888 3137 398 
Q 2709 -91 1959 -91 
Q 1206 -91 779 398 
Q 353 888 353 1747 
Q 353 2609 779 3096 
Q 1206 3584 1959 3584 
z
" transform="scale(0.015625)"/>
       <path id="DejaVuSans-6e" d="M 3513 2113 
L 3513 0 
L 2938 0 
L 2938 2094 
Q 2938 2591 2744 2837 
Q 2550 3084 2163 3084 
Q 1697 3084 1428 2787 
Q 1159 2491 1159 1978 
L 1159 0 
L 581 0 
L 581 3500 
L 1159 3500 
L 1159 2956 
Q 1366 3272 1645 3428 
Q 1925 3584 2291 3584 
Q 2894 3584 3203 3211 
Q 3513 2838 3513 2113 
z
" transform="scale(0.015625)"/>
       <path id="DejaVuSans-67" d="M 2906 1791 
Q 2906 2416 2648 2759 
Q 2391 3103 1925 3103 
Q 1463 3103 1205 2759 
Q 947 2416 947 1791 
Q 947 1169 1205 825 
Q 1463 481 1925 481 
Q 2391 481 2648 825 
Q 2906 1169 2906 1791 
z
M 3481 434 
Q 3481 -459 3084 -895 
Q 2688 -1331 1869 -1331 
Q 1566 -1331 1297 -1286 
Q 1028 -1241 775 -1147 
L 775 -588 
Q 1028 -725 1275 -790 
Q 1522 -856 1778 -856 
Q 2344 -856 2625 -561 
Q 2906 -266 2906 331 
L 2906 616 
Q 2728 306 2450 153 
Q 2172 0 1784 0 
Q 1141 0 747 490 
Q 353 981 353 1791 
Q 353 2603 747 3093 
Q 1141 3584 1784 3584 
Q 2172 3584 2450 3431 
Q 2728 3278 2906 2969 
L 2906 3500 
L 3481 3500 
L 3481 434 
z
" transform="scale(0.015625)"/>
       <path id="DejaVuSans-69" d="M 603 3500 
L 1178 3500 
L 1178 0 
L 603 0 
L 603 3500 
z
M 603 4863 
L 1178 4863 
L 1178 4134 
L 603 4134 
L 603 4863 
z
" transform="scale(0.015625)"/>
       <path id="DejaVuSans-74" d="M 1172 4494 
L 1172 3500 
L 2356 3500 
L 2356 3053 
L 1172 3053 
L 1172 1153 
Q 1172 725 1289 603 
Q 1406 481 1766 481 
L 2356 481 
L 2356 0 
L 1766 0 
Q 1100 0 847 248 
Q 594 497 594 1153 
L 594 3053 
L 172 3053 
L 172 3500 
L 594 3500 
L 594 4494 
L 1172 4494 
z
" transform="scale(0.015625)"/>
       <path id="DejaVuSans-75" d="M 544 1381 
L 544 3500 
L 1119 3500 
L 1119 1403 
Q 1119 906 1312 657 
Q 1506 409 1894 409 
Q 2359 409 2629 706 
Q 2900 1003 2900 1516 
L 2900 3500 
L 3475 3500 
L 3475 0 
L 2900 0 
L 2900 538 
Q 2691 219 2414 64 
Q 2138 -91 1772 -91 
Q 1169 -91 856 284 
Q 544 659 544 1381 
z
M 1991 3584 
L 1991 3584 
z
" transform="scale(0.015625)"/>
       <path id="DejaVuSans-64" d="M 2906 2969 
L 2906 4863 
L 3481 4863 
L 3481 0 
L 2906 0 
L 2906 525 
Q 2725 213 2448 61 
Q 2172 -91 1784 -91 
Q 1150 -91 751 415 
Q 353 922 353 1747 
Q 353 2572 751 3078 
Q 1150 3584 1784 3584 
Q 2172 3584 2448 3432 
Q 2725 3281 2906 2969 
z
M 947 1747 
Q 947 1113 1208 752 
Q 1469 391 1925 391 
Q 2381 391 2643 752 
Q 2906 1113 2906 1747 
Q 2906 2381 2643 2742 
Q 2381 3103 1925 3103 
Q 1469 3103 1208 2742 
Q 947 2381 947 1747 
z
" transform="scale(0.015625)"/>
       <path id="DejaVuSans-65" d="M 3597 1894 
L 3597 1613 
L 953 1613 
Q 991 1019 1311 708 
Q 1631 397 2203 397 
Q 2534 397 2845 478 
Q 3156 559 3463 722 
L 3463 178 
Q 3153 47 2828 -22 
Q 2503 -91 2169 -91 
Q 1331 -91 842 396 
Q 353 884 353 1716 
Q 353 2575 817 3079 
Q 1281 3584 2069 3584 
Q 2775 3584 3186 3129 
Q 3597 2675 3597 1894 
z
M 3022 2063 
Q 3016 2534 2758 2815 
Q 2500 3097 2075 3097 
Q 1594 3097 1305 2825 
Q 1016 2553 972 2059 
L 3022 2063 
z
" transform="scale(0.015625)"/>
       <path id="DejaVuSans-20" transform="scale(0.015625)"/>
       <path id="DejaVuSans-28" d="M 1984 4856 
Q 1566 4138 1362 3434 
Q 1159 2731 1159 2009 
Q 1159 1288 1364 580 
Q 1569 -128 1984 -844 
L 1484 -844 
Q 1016 -109 783 600 
Q 550 1309 550 2009 
Q 550 2706 781 3412 
Q 1013 4119 1484 4856 
L 1984 4856 
z
" transform="scale(0.015625)"/>
       <path id="DejaVuSans-b0" d="M 1600 4347 
Q 1350 4347 1178 4173 
Q 1006 4000 1006 3750 
Q 1006 3503 1178 3333 
Q 1350 3163 1600 3163 
Q 1850 3163 2022 3333 
Q 2194 3503 2194 3750 
Q 2194 3997 2020 4172 
Q 1847 4347 1600 4347 
z
M 1600 4750 
Q 1800 4750 1984 4673 
Q 2169 4597 2303 4453 
Q 2447 4313 2519 4134 
Q 2591 3956 2591 3750 
Q 2591 3338 2302 3052 
Q 2013 2766 1594 2766 
Q 1172 2766 890 3047 
Q 609 3328 609 3750 
Q 609 4169 896 4459 
Q 1184 4750 1600 4750 
z
" transform="scale(0.015625)"/>
       <path id="DejaVuSans-29" d="M 513 4856 
L 1013 4856 
Q 1481 4119 1714 3412 
Q 1947 2706 1947 2009 
Q 1947 1309 1714 600 
Q 1481 -109 1013 -844 
L 513 -844 
Q 928 -128 1133 580 
Q 1338 1288 1338 2009 
Q 1338 2731 1133 3434 
Q 928 4138 513 4856 
z
" transform="scale(0.015625)"/>
      </defs>
      <use xlink:href="#DejaVuSans-4c"/>
      <use xlink:href="#DejaVuSans-6f" transform="translate(53.962891 0)"/>
      <use xlink:href="#DejaVuSans-6e" transform="translate(115.144531 0)"/>
      <use xlink:href="#DejaVuSans-67" transform="translate(178.523438 0)"/>
      <use xlink:href="#DejaVuSans-69" transform="translate(242 0)"/>
      <use xlink:href="#DejaVuSans-74" transform="translate(269.783203 0)"/>
      <use xlink:href="#DejaVuSans-75" transform="translate(308.992188 0)"/>
      <use xlink:href="#DejaVuSans-64" transform="translate(372.371094 0)"/>
      <use xlink:href="#DejaVuSans-65" transform="translate(435.847656 0)"/>
      <use xlink:href="#DejaVuSans-20" transform="translate(497.371094 0)"/>
      <use xlink:href="#DejaVuSans-28" transform="translate(529.158203 0)"/>
      <use xlink:href="#DejaVuSans-b0" transform="translate(568.171875 0)"/>
      <use xlink:href="#DejaVuSans-29" transform="translate(618.171875 0)"/>
     </g>
    </g>
   </g>
   <g id="matplotlib.axis_2">
    <g id="ytick_1">
     <g id="line2d_11">
      <path d="M 209.484095 1066.162254 
L 702.241217 1066.162254 
" clip-path="url(#pf9b76d651f)" style="fill: none; stroke: #808080; stroke-opacity: 0.2; stroke-width: 0.5; stroke-linecap: square"/>
     </g>
     <g id="line2d_12">
      <defs>
       <path id="me6e0c9476b" d="M 0 0 
L -3.5 0 
" style="stroke: #000000; stroke-width: 0.8"/>
      </defs>
      <g>
       <use xlink:href="#me6e0c9476b" x="209.484095" y="1066.162254" style="stroke: #000000; stroke-width: 0.8"/>
      </g>
     </g>
     <g id="text_7">
      <!-- 41.4 -->
      <g transform="translate(180.21847 1069.961473) scale(0.1 -0.1)">
       <defs>
        <path id="DejaVuSans-31" d="M 794 531 
L 1825 531 
L 1825 4091 
L 703 3866 
L 703 4441 
L 1819 4666 
L 2450 4666 
L 2450 531 
L 3481 531 
L 3481 0 
L 794 0 
L 794 531 
z
" transform="scale(0.015625)"/>
       </defs>
       <use xlink:href="#DejaVuSans-34"/>
       <use xlink:href="#DejaVuSans-31" transform="translate(63.623047 0)"/>
       <use xlink:href="#DejaVuSans-2e" transform="translate(127.246094 0)"/>
       <use xlink:href="#DejaVuSans-34" transform="translate(159.033203 0)"/>
      </g>
     </g>
    </g>
    <g id="ytick_2">
     <g id="line2d_13">
      <path d="M 209.484095 940.581575 
L 702.241217 940.581575 
" clip-path="url(#pf9b76d651f)" style="fill: none; stroke: #808080; stroke-opacity: 0.2; stroke-width: 0.5; stroke-linecap: square"/>
     </g>
     <g id="line2d_14">
      <g>
       <use xlink:href="#me6e0c9476b" x="209.484095" y="940.581575" style="stroke: #000000; stroke-width: 0.8"/>
      </g>
     </g>
     <g id="text_8">
      <!-- 41.6 -->
      <g transform="translate(180.21847 944.380794) scale(0.1 -0.1)">
       <use xlink:href="#DejaVuSans-34"/>
       <use xlink:href="#DejaVuSans-31" transform="translate(63.623047 0)"/>
       <use xlink:href="#DejaVuSans-2e" transform="translate(127.246094 0)"/>
       <use xlink:href="#DejaVuSans-36" transform="translate(159.033203 0)"/>
      </g>
     </g>
    </g>
    <g id="ytick_3">
     <g id="line2d_15">
      <path d="M 209.484095 815.000896 
L 702.241217 815.000896 
" clip-path="url(#pf9b76d651f)" style="fill: none; stroke: #808080; stroke-opacity: 0.2; stroke-width: 0.5; stroke-linecap: square"/>
     </g>
     <g id="line2d_16">
      <g>
       <use xlink:href="#me6e0c9476b" x="209.484095" y="815.000896" style="stroke: #000000; stroke-width: 0.8"/>
      </g>
     </g>
     <g id="text_9">
      <!-- 41.8 -->
      <g transform="translate(180.21847 818.800115) scale(0.1 -0.1)">
       <use xlink:href="#DejaVuSans-34"/>
       <use xlink:href="#DejaVuSans-31" transform="translate(63.623047 0)"/>
       <use xlink:href="#DejaVuSans-2e" transform="translate(127.246094 0)"/>
       <use xlink:href="#DejaVuSans-38" transform="translate(159.033203 0)"/>
      </g>
     </g>
    </g>
    <g id="ytick_4">
     <g id="line2d_17">
      <path d="M 209.484095 689.420217 
L 702.241217 689.420217 
" clip-path="url(#pf9b76d651f)" style="fill: none; stroke: #808080; stroke-opacity: 0.2; stroke-width: 0.5; stroke-linecap: square"/>
     </g>
     <g id="line2d_18">
      <g>
       <use xlink:href="#me6e0c9476b" x="209.484095" y="689.420217" style="stroke: #000000; stroke-width: 0.8"/>
      </g>
     </g>
     <g id="text_10">
      <!-- 42.0 -->
      <g transform="translate(180.21847 693.219436) scale(0.1 -0.1)">
       <use xlink:href="#DejaVuSans-34"/>
       <use xlink:href="#DejaVuSans-32" transform="translate(63.623047 0)"/>
       <use xlink:href="#DejaVuSans-2e" transform="translate(127.246094 0)"/>
       <use xlink:href="#DejaVuSans-30" transform="translate(159.033203 0)"/>
      </g>
     </g>
    </g>
    <g id="ytick_5">
     <g id="line2d_19">
      <path d="M 209.484095 563.839538 
L 702.241217 563.839538 
" clip-path="url(#pf9b76d651f)" style="fill: none; stroke: #808080; stroke-opacity: 0.2; stroke-width: 0.5; stroke-linecap: square"/>
     </g>
     <g id="line2d_20">
      <g>
       <use xlink:href="#me6e0c9476b" x="209.484095" y="563.839538" style="stroke: #000000; stroke-width: 0.8"/>
      </g>
     </g>
     <g id="text_11">
      <!-- 42.2 -->
      <g transform="translate(180.21847 567.638756) scale(0.1 -0.1)">
       <use xlink:href="#DejaVuSans-34"/>
       <use xlink:href="#DejaVuSans-32" transform="translate(63.623047 0)"/>
       <use xlink:href="#DejaVuSans-2e" transform="translate(127.246094 0)"/>
       <use xlink:href="#DejaVuSans-32" transform="translate(159.033203 0)"/>
      </g>
     </g>
    </g>
    <g id="ytick_6">
     <g id="line2d_21">
      <path d="M 209.484095 438.258858 
L 702.241217 438.258858 
" clip-path="url(#pf9b76d651f)" style="fill: none; stroke: #808080; stroke-opacity: 0.2; stroke-width: 0.5; stroke-linecap: square"/>
     </g>
     <g id="line2d_22">
      <g>
       <use xlink:href="#me6e0c9476b" x="209.484095" y="438.258858" style="stroke: #000000; stroke-width: 0.8"/>
      </g>
     </g>
     <g id="text_12">
      <!-- 42.4 -->
      <g transform="translate(180.21847 442.058077) scale(0.1 -0.1)">
       <use xlink:href="#DejaVuSans-34"/>
       <use xlink:href="#DejaVuSans-32" transform="translate(63.623047 0)"/>
       <use xlink:href="#DejaVuSans-2e" transform="translate(127.246094 0)"/>
       <use xlink:href="#DejaVuSans-34" transform="translate(159.033203 0)"/>
      </g>
     </g>
    </g>
    <g id="ytick_7">
     <g id="line2d_23">
      <path d="M 209.484095 312.678179 
L 702.241217 312.678179 
" clip-path="url(#pf9b76d651f)" style="fill: none; stroke: #808080; stroke-opacity: 0.2; stroke-width: 0.5; stroke-linecap: square"/>
     </g>
     <g id="line2d_24">
      <g>
       <use xlink:href="#me6e0c9476b" x="209.484095" y="312.678179" style="stroke: #000000; stroke-width: 0.8"/>
      </g>
     </g>
     <g id="text_13">
      <!-- 42.6 -->
      <g transform="translate(180.21847 316.477398) scale(0.1 -0.1)">
       <use xlink:href="#DejaVuSans-34"/>
       <use xlink:href="#DejaVuSans-32" transform="translate(63.623047 0)"/>
       <use xlink:href="#DejaVuSans-2e" transform="translate(127.246094 0)"/>
       <use xlink:href="#DejaVuSans-36" transform="translate(159.033203 0)"/>
      </g>
     </g>
    </g>
    <g id="ytick_8">
     <g id="line2d_25">
      <path d="M 209.484095 187.0975 
L 702.241217 187.0975 
" clip-path="url(#pf9b76d651f)" style="fill: none; stroke: #808080; stroke-opacity: 0.2; stroke-width: 0.5; stroke-linecap: square"/>
     </g>
     <g id="line2d_26">
      <g>
       <use xlink:href="#me6e0c9476b" x="209.484095" y="187.0975" style="stroke: #000000; stroke-width: 0.8"/>
      </g>
     </g>
     <g id="text_14">
      <!-- 42.8 -->
      <g transform="translate(180.21847 190.896719) scale(0.1 -0.1)">
       <use xlink:href="#DejaVuSans-34"/>
       <use xlink:href="#DejaVuSans-32" transform="translate(63.623047 0)"/>
       <use xlink:href="#DejaVuSans-2e" transform="translate(127.246094 0)"/>
       <use xlink:href="#DejaVuSans-38" transform="translate(159.033203 0)"/>
      </g>
     </g>
    </g>
    <g id="ytick_9">
     <g id="line2d_27">
      <path d="M 209.484095 61.516821 
L 702.241217 61.516821 
" clip-path="url(#pf9b76d651f)" style="fill: none; stroke: #808080; stroke-opacity: 0.2; stroke-width: 0.5; stroke-linecap: square"/>
     </g>
     <g id="line2d_28">
      <g>
       <use xlink:href="#me6e0c9476b" x="209.484095" y="61.516821" style="stroke: #000000; stroke-width: 0.8"/>
      </g>
     </g>
     <g id="text_15">
      <!-- 43.0 -->
      <g transform="translate(180.21847 65.31604) scale(0.1 -0.1)">
       <defs>
        <path id="DejaVuSans-33" d="M 2597 2516 
Q 3050 2419 3304 2112 
Q 3559 1806 3559 1356 
Q 3559 666 3084 287 
Q 2609 -91 1734 -91 
Q 1441 -91 1130 -33 
Q 819 25 488 141 
L 488 750 
Q 750 597 1062 519 
Q 1375 441 1716 441 
Q 2309 441 2620 675 
Q 2931 909 2931 1356 
Q 2931 1769 2642 2001 
Q 2353 2234 1838 2234 
L 1294 2234 
L 1294 2753 
L 1863 2753 
Q 2328 2753 2575 2939 
Q 2822 3125 2822 3475 
Q 2822 3834 2567 4026 
Q 2313 4219 1838 4219 
Q 1578 4219 1281 4162 
Q 984 4106 628 3988 
L 628 4550 
Q 988 4650 1302 4700 
Q 1616 4750 1894 4750 
Q 2613 4750 3031 4423 
Q 3450 4097 3450 3541 
Q 3450 3153 3228 2886 
Q 3006 2619 2597 2516 
z
" transform="scale(0.015625)"/>
       </defs>
       <use xlink:href="#DejaVuSans-34"/>
       <use xlink:href="#DejaVuSans-33" transform="translate(63.623047 0)"/>
       <use xlink:href="#DejaVuSans-2e" transform="translate(127.246094 0)"/>
       <use xlink:href="#DejaVuSans-30" transform="translate(159.033203 0)"/>
      </g>
     </g>
    </g>
    <g id="text_16">
     <!-- Latitude (°) -->
     <g style="fill: #2f4f4f" transform="translate(173.306908 612.034531) rotate(-90) scale(0.14 -0.14)">
      <defs>
       <path id="DejaVuSans-61" d="M 2194 1759 
Q 1497 1759 1228 1600 
Q 959 1441 959 1056 
Q 959 750 1161 570 
Q 1363 391 1709 391 
Q 2188 391 2477 730 
Q 2766 1069 2766 1631 
L 2766 1759 
L 2194 1759 
z
M 3341 1997 
L 3341 0 
L 2766 0 
L 2766 531 
Q 2569 213 2275 61 
Q 1981 -91 1556 -91 
Q 1019 -91 701 211 
Q 384 513 384 1019 
Q 384 1609 779 1909 
Q 1175 2209 1959 2209 
L 2766 2209 
L 2766 2266 
Q 2766 2663 2505 2880 
Q 2244 3097 1772 3097 
Q 1472 3097 1187 3025 
Q 903 2953 641 2809 
L 641 3341 
Q 956 3463 1253 3523 
Q 1550 3584 1831 3584 
Q 2591 3584 2966 3190 
Q 3341 2797 3341 1997 
z
" transform="scale(0.015625)"/>
      </defs>
      <use xlink:href="#DejaVuSans-4c"/>
      <use xlink:href="#DejaVuSans-61" transform="translate(55.712891 0)"/>
      <use xlink:href="#DejaVuSans-74" transform="translate(116.992188 0)"/>
      <use xlink:href="#DejaVuSans-69" transform="translate(156.201172 0)"/>
      <use xlink:href="#DejaVuSans-74" transform="translate(183.984375 0)"/>
      <use xlink:href="#DejaVuSans-75" transform="translate(223.193359 0)"/>
      <use xlink:href="#DejaVuSans-64" transform="translate(286.572266 0)"/>
      <use xlink:href="#DejaVuSans-65" transform="translate(350.048828 0)"/>
      <use xlink:href="#DejaVuSans-20" transform="translate(411.572266 0)"/>
      <use xlink:href="#DejaVuSans-28" transform="translate(443.359375 0)"/>
      <use xlink:href="#DejaVuSans-b0" transform="translate(482.373047 0)"/>
      <use xlink:href="#DejaVuSans-29" transform="translate(532.373047 0)"/>
     </g>
    </g>
   </g>
   <g id="PatchCollection_1">
    <path d="M 558.853948 1088.164429 
L 556.3725 1089.91912 
L 551.805804 1085.756468 
L 553.835055 1082.706736 
L 560.076305 1085.487996 
z
" clip-path="url(#pf9b76d651f)" style="fill: #2e8b57; fill-opacity: 0.7; stroke: #1c3a3a; stroke-opacity: 0.7; stroke-width: 2"/>
    <path d="M 619.91286 778.141913 
L 619.811221 786.215152 
L 621.77537 800.9586 
L 616.127238 815.66512 
L 618.479457 821.190037 
L 617.993243 828.526554 
L 622.262661 835.323163 
L 621.308872 843.522997 
L 621.749406 853.176561 
L 619.480503 867.142235 
L 620.500032 870.984638 
L 618.772147 882.312975 
L 610.057403 885.325295 
L 605.969121 891.083847 
L 607.568141 896.23924 
L 613.036602 904.565625 
L 611.903719 907.321245 
L 602.299469 917.864642 
L 597.798448 915.019524 
L 594.47773 917.579955 
L 593.915687 921.730013 
L 597.374324 923.858749 
L 593.897915 929.587926 
L 589.425292 927.057302 
L 584.988363 930.310991 
L 576.163291 922.694144 
L 575.13161 929.611981 
L 570.936267 933.718364 
L 566.906798 934.888043 
L 564.205094 942.832158 
L 565.982511 947.204009 
L 570.321042 951.053521 
L 576.230731 944.366129 
L 578.417028 939.870542 
L 582.34202 937.544218 
L 588.660972 939.308471 
L 594.229702 944.103557 
L 604.235516 942.52977 
L 597.167481 954.434101 
L 594.744301 956.035019 
L 595.673561 961.812869 
L 591.35983 966.173831 
L 583.493624 967.433006 
L 573.411402 974.991674 
L 566.542362 984.391177 
L 559.803926 984.413804 
L 560.08592 989.232819 
L 564.849266 990.531237 
L 561.773992 999.526015 
L 557.860727 1002.351727 
L 561.133079 1005.609048 
L 566.586527 1006.617468 
L 564.888115 1017.454346 
L 561.757179 1018.844571 
L 561.963813 1025.376491 
L 556.457902 1024.723482 
L 545.786196 1036.835666 
L 536.950982 1039.483366 
L 536.633718 1043.541416 
L 539.250546 1050.275012 
L 538.888689 1060.441729 
L 546.38721 1052.86253 
L 556.095133 1048.403014 
L 553.333733 1057.763798 
L 549.406291 1060.130909 
L 542.631734 1070.206422 
L 541.216915 1074.601164 
L 535.80373 1081.025375 
L 534.96189 1086.122081 
L 525.250704 1087.582655 
L 516.67309 1087.235764 
L 513.882272 1079.141467 
L 510.56673 1075.208475 
L 500.03822 1074.209666 
L 488.987838 1068.395609 
L 476.415296 1070.030567 
L 475.174034 1065.028211 
L 477.202548 1058.356341 
L 483.43236 1053.641758 
L 481.303702 1050.148929 
L 488.906182 1042.542846 
L 488.223101 1040.56137 
L 479.025374 1039.307988 
L 476.295906 1034.943259 
L 471.000307 1039.806709 
L 467.330613 1039.212251 
L 463.662919 1034.124361 
L 465.524786 1024.130048 
L 465.45728 1018.647908 
L 456.407618 1028.712928 
L 450.557291 1028.710832 
L 441.143298 1023.622747 
L 438.750755 1018.365072 
L 433.765979 1018.583253 
L 429.427979 1012.541542 
L 423.853153 1016.350574 
L 413.89438 1008.313414 
L 404.098094 1009.859107 
L 401.02055 1006.274044 
L 396.007438 1004.94228 
L 393.092226 998.845892 
L 386.316725 997.862552 
L 379.073472 1000.186957 
L 377.874439 997.570668 
L 380.76995 992.647375 
L 375.907466 988.431297 
L 370.119638 990.733189 
L 360.677017 992.095976 
L 358.969869 988.448843 
L 363.86384 982.504189 
L 363.521433 977.715167 
L 359.098431 974.141236 
L 350.369032 974.390347 
L 346.634126 969.524018 
L 334.372061 967.119334 
L 332.95707 963.400289 
L 340.620709 957.833097 
L 331.698992 949.572394 
L 329.095263 945.125097 
L 332.216515 942.842221 
L 335.494306 935.243588 
L 336.485312 922.024277 
L 340.857935 919.721924 
L 349.839304 921.687876 
L 352.043448 918.007333 
L 364.865233 911.059239 
L 372.041646 911.640804 
L 375.653414 907.645143 
L 377.351074 897.824377 
L 382.924858 894.053713 
L 389.961519 892.228065 
L 393.362549 889.543857 
L 392.980973 884.24377 
L 379.557644 883.536576 
L 376.129927 880.319696 
L 358.912266 879.328568 
L 353.800588 873.858725 
L 345.620689 868.91902 
L 336.80668 872.835133 
L 327.131874 870.307215 
L 332.516067 857.90879 
L 330.412368 853.042951 
L 326.890856 851.722398 
L 321.134565 853.692062 
L 310.231593 859.315218 
L 305.03818 860.495217 
L 301.203064 863.491033 
L 294.592254 861.46209 
L 296.721074 855.070174 
L 292.082445 851.846673 
L 284.811415 852.726341 
L 280.047384 850.359287 
L 273.903414 851.541941 
L 274.454778 846.732934 
L 278.423536 844.57851 
L 285.977877 848.278312 
L 295.232788 841.441567 
L 299.296212 839.593623 
L 307.179815 830.125755 
L 305.821172 823.10796 
L 302.287145 821.974545 
L 303.067893 816.376392 
L 312.229191 815.824793 
L 315.633015 808.20464 
L 319.954627 809.380994 
L 326.351788 807.943626 
L 327.979779 799.277999 
L 331.362199 793.838439 
L 326.125084 792.106778 
L 324.722782 786.160607 
L 332.308945 784.75461 
L 335.340735 780.139202 
L 335.181908 773.297684 
L 330.965199 764.348658 
L 341.164138 757.622426 
L 337.68803 746.643703 
L 333.107766 739.48563 
L 326.976856 735.021326 
L 321.51335 736.851429 
L 318.727139 731.762424 
L 314.169025 731.386616 
L 311.767119 734.436363 
L 312.28624 741.191846 
L 307.621347 742.226827 
L 303.15168 746.398567 
L 294.709485 747.419632 
L 287.065837 746.814249 
L 279.43707 749.033005 
L 276.576566 747.57358 
L 265.941032 746.001067 
L 253.603606 750.73699 
L 251.451446 744.015891 
L 256.839718 734.737644 
L 256.322598 727.382033 
L 250.843554 726.996704 
L 249.30498 720.152729 
L 245.586194 718.782029 
L 244.741615 710.708082 
L 253.560745 707.421635 
L 264.810928 709.845099 
L 268.088725 709.431023 
L 278.701929 700.452791 
L 278.507018 694.687825 
L 273.439155 693.541327 
L 272.907927 683.552016 
L 278.298163 678.458806 
L 288.680292 672.094441 
L 294.117278 672.693415 
L 304.973525 667.847536 
L 303.734177 662.709171 
L 312.409729 663.731321 
L 315.042012 657.892651 
L 311.400928 650.051547 
L 302.419149 649.541484 
L 302.642348 645.817054 
L 300.051619 638.221843 
L 295.385261 634.202361 
L 297.953876 629.253026 
L 293.29722 622.834959 
L 293.174778 618.77128 
L 288.135744 617.145144 
L 284.215036 622.864457 
L 279.809968 622.167254 
L 274.805326 624.376648 
L 268.527126 613.361091 
L 264.091768 614.218108 
L 258.582633 612.394961 
L 251.28754 604.938953 
L 244.74234 607.630168 
L 238.522674 608.217735 
L 239.66991 604.109158 
L 243.844985 599.513722 
L 241.885552 595.767001 
L 236.175847 591.119087 
L 242.084774 586.516386 
L 241.300609 581.784271 
L 231.870202 583.29376 
L 230.576991 578.072766 
L 238.690901 577.309798 
L 236.521903 571.027845 
L 237.996008 560.109883 
L 232.547699 558.814761 
L 235.174465 553.558114 
L 231.366213 551.54695 
L 234.346637 547.614588 
L 232.857748 544.813535 
L 222.552053 545.689416 
L 218.789092 541.868721 
L 223.042166 538.737886 
L 226.237613 541.210503 
L 234.149094 539.511219 
L 236.543381 536.052668 
L 241.689227 535.895467 
L 254.43398 529.017261 
L 259.097919 531.342673 
L 266.123285 528.408167 
L 277.171248 526.592236 
L 279.954898 524.872178 
L 288.11239 523.950328 
L 288.585906 514.733074 
L 282.004975 511.337041 
L 281.064136 504.604893 
L 274.83718 499.718954 
L 269.291483 499.333415 
L 265.235427 501.415841 
L 258.527172 493.34987 
L 251.47476 495.778163 
L 245.462148 490.968251 
L 248.810228 486.825864 
L 256.684667 483.775553 
L 259.681309 480.77042 
L 258.959464 475.781264 
L 255.16236 475.492566 
L 246.769679 467.770428 
L 242.722427 467.913381 
L 238.076777 471.243745 
L 234.49017 476.929567 
L 230.317825 480.193541 
L 224.932832 480.308875 
L 227.489671 473.556673 
L 224.228442 471.301773 
L 226.131732 460.392475 
L 220.232453 458.969224 
L 222.439193 451.222034 
L 226.916315 456.621005 
L 231.159204 456.66091 
L 236.563219 453.616296 
L 234.284713 449.934758 
L 239.736368 447.473226 
L 244.900723 449.310735 
L 250.771102 446.810932 
L 247.720362 438.225694 
L 252.090248 436.250731 
L 248.537339 432.285647 
L 250.572339 427.696216 
L 257.560776 425.061681 
L 264.985251 426.630359 
L 269.038727 430.021356 
L 272.352138 428.379215 
L 275.604227 421.750082 
L 274.762362 416.104666 
L 269.099284 411.628969 
L 277.977315 410.076047 
L 278.360321 401.832279 
L 283.797131 395.489959 
L 281.453254 390.385647 
L 269.563294 391.599556 
L 269.886463 389.131723 
L 276.688384 379.867501 
L 277.599487 365.909402 
L 281.476625 363.775412 
L 285.626349 365.133866 
L 291.712631 359.404541 
L 298.042135 360.585002 
L 301.842383 357.73324 
L 297.953763 353.037534 
L 301.998989 349.85309 
L 300.919142 344.533118 
L 303.798542 339.817248 
L 300.195059 335.265324 
L 298.294666 327.367499 
L 304.495535 322.665816 
L 304.273629 328.994825 
L 305.763429 336.786867 
L 310.912944 332.894805 
L 315.645234 332.652993 
L 321.301822 338.692482 
L 325.117271 340.424326 
L 334.032773 338.942673 
L 341.613575 331.605954 
L 339.780301 323.730046 
L 344.861221 319.155165 
L 343.86195 313.26866 
L 350.656111 308.793111 
L 355.673473 311.58343 
L 363.406429 306.032558 
L 369.93278 307.655027 
L 374.61944 304.411881 
L 374.178554 301.262915 
L 379.962984 294.490293 
L 387.355224 295.638493 
L 391.422266 294.534959 
L 394.668646 289.505085 
L 402.171056 288.333217 
L 405.670787 291.26916 
L 413.85462 290.650196 
L 421.206181 287.534625 
L 433.050735 286.362627 
L 437.584557 287.340964 
L 442.3842 284.879161 
L 445.557269 279.993027 
L 454.159526 278.116383 
L 460.355294 274.963395 
L 461.520498 271.806085 
L 457.788782 262.471977 
L 460.249797 253.272582 
L 466.116161 254.026136 
L 469.837139 249.355007 
L 472.658146 240.714729 
L 479.225497 240.31463 
L 482.062104 234.756925 
L 487.659135 233.221693 
L 490.704086 230.026597 
L 496.05625 230.908025 
L 510.399797 226.929421 
L 520.295517 232.723186 
L 527.595269 233.364523 
L 534.007094 228.39956 
L 537.229689 229.794962 
L 541.627115 237.386415 
L 551.138046 238.262161 
L 553.407231 249.452671 
L 557.417421 250.216264 
L 562.494254 256.422996 
L 565.08571 264.746491 
L 569.224534 266.017826 
L 573.800629 259.895225 
L 578.927078 256.799901 
L 582.845009 251.078707 
L 582.237688 241.47391 
L 590.744266 231.683355 
L 593.024738 226.146546 
L 590.560286 213.514498 
L 590.782939 202.159958 
L 592.133575 190.36131 
L 589.906025 184.535902 
L 584.022996 178.725885 
L 581.889246 172.399284 
L 577.456144 165.322243 
L 587.302155 150.382355 
L 591.013057 145.978745 
L 586.220382 141.640067 
L 584.552876 130.38808 
L 582.670708 124.537827 
L 597.370593 114.113367 
L 598.403618 107.35159 
L 595.079261 105.903495 
L 599.59659 95.210511 
L 594.730919 91.783342 
L 593.620261 87.947194 
L 595.847239 81.440176 
L 591.937975 74.987642 
L 592.973589 70.600977 
L 591.347323 64.992425 
L 599.800333 57.29389 
L 606.230115 58.525697 
L 609.522844 56.372164 
L 620.93888 57.860056 
L 625.216249 57.415459 
L 628.978966 54.155255 
L 633.203071 59.806507 
L 636.774417 61.208768 
L 642.707278 67.597916 
L 648.426713 70.05563 
L 644.025 78.420655 
L 642.991753 83.895473 
L 645.670926 93.504003 
L 651.107946 101.611406 
L 650.341446 107.474734 
L 651.792242 112.671573 
L 653.223589 129.860869 
L 654.926052 135.959281 
L 652.850558 140.551777 
L 657.153211 146.751379 
L 658.066207 155.583545 
L 656.421876 161.494088 
L 658.780143 166.736313 
L 661.838376 183.895024 
L 661.228924 190.255799 
L 652.390934 205.599487 
L 650.081153 211.673925 
L 650.753973 216.578479 
L 647.418552 224.357489 
L 647.92108 227.516882 
L 645.000939 238.560795 
L 643.234048 253.971814 
L 640.437877 258.599944 
L 640.345679 266.47876 
L 641.743826 273.597621 
L 647.79337 287.489986 
L 653.693904 297.083496 
L 672.925359 323.344599 
L 677.327955 332.137982 
L 680.82552 346.618516 
L 681.428505 360.40977 
L 679.35063 373.402194 
L 679.910527 385.253988 
L 684.206493 399.914678 
L 684.379533 412.634587 
L 685.570796 420.369498 
L 683.354548 429.455844 
L 680.582168 450.837039 
L 680.9067 459.43156 
L 682.708508 472.661992 
L 685.155082 482.962782 
L 688.856533 492.751491 
L 692.751533 510.301584 
L 692.936221 518.797327 
L 690.138719 537.823091 
L 689.974404 550.491785 
L 692.104683 561.851312 
L 690.694856 590.832227 
L 691.715184 600.168312 
L 688.634211 624.01404 
L 679.964032 634.48531 
L 666.744838 654.498722 
L 648.998061 682.542076 
L 638.18636 695.85669 
L 630.141053 707.292888 
L 624.703931 719.260916 
L 624.463992 727.266061 
L 625.834168 736.445089 
L 624.089137 745.303303 
L 619.816299 753.996635 
L 617.469302 768.150965 
z
" clip-path="url(#pf9b76d651f)" style="fill: #2e8b57; fill-opacity: 0.7; stroke: #1c3a3a; stroke-opacity: 0.7; stroke-width: 2"/>
   </g>
   <g id="patch_3">
    <path d="M 266.051969 1045.909314 
L 322.619842 1045.909314 
L 322.619842 989.341441 
L 266.051969 989.341441 
L 266.051969 1045.909314 
z
" clip-path="url(#pf9b76d651f)" style="fill: none; stroke: #111827; stroke-width: 2; stroke-linejoin: miter"/>
   </g>
   <g id="patch_4">
    <path d="M 209.484095 649.9342 
L 266.051969 649.9342 
L 266.051969 593.366326 
L 209.484095 593.366326 
z
" clip-path="url(#pf9b76d651f)" style="fill: #ffa500; opacity: 0.3; stroke: #ff0000; stroke-width: 0.5; stroke-linejoin: miter"/>
   </g>
   <g id="patch_5">
    <path d="M 209.484095 593.366326 
L 266.051969 593.366326 
L 266.051969 536.798453 
L 209.484095 536.798453 
z
" clip-path="url(#pf9b76d651f)" style="fill: #ffa500; opacity: 0.3; stroke: #ff0000; stroke-width: 0.5; stroke-linejoin: miter"/>
   </g>
   <g id="patch_6">
    <path d="M 209.484095 536.798453 
L 266.051969 536.798453 
L 266.051969 480.230579 
L 209.484095 480.230579 
z
" clip-path="url(#pf9b76d651f)" style="fill: #ffa500; opacity: 0.3; stroke: #ff0000; stroke-width: 0.5; stroke-linejoin: miter"/>
   </g>
   <g id="patch_7">
    <path d="M 209.484095 480.230579 
L 266.051969 480.230579 
L 266.051969 423.662706 
L 209.484095 423.662706 
z
" clip-path="url(#pf9b76d651f)" style="fill: #ffa500; opacity: 0.3; stroke: #ff0000; stroke-width: 0.5; stroke-linejoin: miter"/>
   </g>
   <g id="patch_8">
    <path d="M 266.051969 876.205694 
L 322.619842 876.205694 
L 322.619842 819.63782 
L 266.051969 819.63782 
z
" clip-path="url(#pf9b76d651f)" style="fill: #ffa500; opacity: 0.3; stroke: #ff0000; stroke-width: 0.5; stroke-linejoin: miter"/>
   </g>
   <g id="patch_9">
    <path d="M 266.051969 819.63782 
L 322.619842 819.63782 
L 322.619842 763.069947 
L 266.051969 763.069947 
z
" clip-path="url(#pf9b76d651f)" style="fill: #ffa500; opacity: 0.3; stroke: #ff0000; stroke-width: 0.5; stroke-linejoin: miter"/>
   </g>
   <g id="patch_10">
    <path d="M 266.051969 763.069947 
L 322.619842 763.069947 
L 322.619842 706.502073 
L 266.051969 706.502073 
z
" clip-path="url(#pf9b76d651f)" style="fill: #ffa500; opacity: 0.3; stroke: #ff0000; stroke-width: 0.5; stroke-linejoin: miter"/>
   </g>
   <g id="patch_11">
    <path d="M 266.051969 706.502073 
L 322.619842 706.502073 
L 322.619842 649.9342 
L 266.051969 649.9342 
z
" clip-path="url(#pf9b76d651f)" style="fill: #ffa500; opacity: 0.3; stroke: #ff0000; stroke-width: 0.5; stroke-linejoin: miter"/>
   </g>
   <g id="patch_12">
    <path d="M 266.051969 649.9342 
L 322.619842 649.9342 
L 322.619842 593.366326 
L 266.051969 593.366326 
z
" clip-path="url(#pf9b76d651f)" style="fill: #ffa500; opacity: 0.3; stroke: #ff0000; stroke-width: 0.5; stroke-linejoin: miter"/>
   </g>
   <g id="patch_13">
    <path d="M 266.051969 593.366326 
L 322.619842 593.366326 
L 322.619842 536.798453 
L 266.051969 536.798453 
z
" clip-path="url(#pf9b76d651f)" style="fill: #0000ff; opacity: 0.3; stroke: #ff0000; stroke-width: 0.5; stroke-linejoin: miter"/>
   </g>
   <g id="patch_14">
    <path d="M 266.051969 536.798453 
L 322.619842 536.798453 
L 322.619842 480.230579 
L 266.051969 480.230579 
z
" clip-path="url(#pf9b76d651f)" style="fill: #0000ff; opacity: 0.3; stroke: #ff0000; stroke-width: 0.5; stroke-linejoin: miter"/>
   </g>
   <g id="patch_15">
    <path d="M 266.051969 480.230579 
L 322.619842 480.230579 
L 322.619842 423.662706 
L 266.051969 423.662706 
z
" clip-path="url(#pf9b76d651f)" style="fill: #ffa500; opacity: 0.3; stroke: #ff0000; stroke-width: 0.5; stroke-linejoin: miter"/>
   </g>
   <g id="patch_16">
    <path d="M 266.051969 423.662706 
L 322.619842 423.662706 
L 322.619842 367.094832 
L 266.051969 367.094832 
z
" clip-path="url(#pf9b76d651f)" style="fill: #ffa500; opacity: 0.3; stroke: #ff0000; stroke-width: 0.5; stroke-linejoin: miter"/>
   </g>
   <g id="patch_17">
    <path d="M 266.051969 367.094832 
L 322.619842 367.094832 
L 322.619842 310.526959 
L 266.051969 310.526959 
z
" clip-path="url(#pf9b76d651f)" style="fill: #ffa500; opacity: 0.3; stroke: #ff0000; stroke-width: 0.5; stroke-linejoin: miter"/>
   </g>
   <g id="patch_18">
    <path d="M 322.619842 1045.909314 
L 379.187716 1045.909314 
L 379.187716 989.341441 
L 322.619842 989.341441 
z
" clip-path="url(#pf9b76d651f)" style="fill: #ffa500; opacity: 0.3; stroke: #ff0000; stroke-width: 0.5; stroke-linejoin: miter"/>
   </g>
   <g id="patch_19">
    <path d="M 322.619842 989.341441 
L 379.187716 989.341441 
L 379.187716 932.773567 
L 322.619842 932.773567 
z
" clip-path="url(#pf9b76d651f)" style="fill: #ffa500; opacity: 0.3; stroke: #ff0000; stroke-width: 0.5; stroke-linejoin: miter"/>
   </g>
   <g id="patch_20">
    <path d="M 322.619842 932.773567 
L 379.187716 932.773567 
L 379.187716 876.205694 
L 322.619842 876.205694 
z
" clip-path="url(#pf9b76d651f)" style="fill: #ffa500; opacity: 0.3; stroke: #ff0000; stroke-width: 0.5; stroke-linejoin: miter"/>
   </g>
   <g id="patch_21">
    <path d="M 322.619842 876.205694 
L 379.187716 876.205694 
L 379.187716 819.63782 
L 322.619842 819.63782 
z
" clip-path="url(#pf9b76d651f)" style="fill: #ffa500; opacity: 0.3; stroke: #ff0000; stroke-width: 0.5; stroke-linejoin: miter"/>
   </g>
   <g id="patch_22">
    <path d="M 322.619842 819.63782 
L 379.187716 819.63782 
L 379.187716 763.069947 
L 322.619842 763.069947 
z
" clip-path="url(#pf9b76d651f)" style="fill: #ffa500; opacity: 0.3; stroke: #ff0000; stroke-width: 0.5; stroke-linejoin: miter"/>
   </g>
   <g id="patch_23">
    <path d="M 322.619842 763.069947 
L 379.187716 763.069947 
L 379.187716 706.502073 
L 322.619842 706.502073 
z
" clip-path="url(#pf9b76d651f)" style="fill: #ffa500; opacity: 0.3; stroke: #ff0000; stroke-width: 0.5; stroke-linejoin: miter"/>
   </g>
   <g id="patch_24">
    <path d="M 322.619842 706.502073 
L 379.187716 706.502073 
L 379.187716 649.9342 
L 322.619842 649.9342 
z
" clip-path="url(#pf9b76d651f)" style="fill: #0000ff; opacity: 0.3; stroke: #ff0000; stroke-width: 0.5; stroke-linejoin: miter"/>
   </g>
   <g id="patch_25">
    <path d="M 322.619842 649.9342 
L 379.187716 649.9342 
L 379.187716 593.366326 
L 322.619842 593.366326 
z
" clip-path="url(#pf9b76d651f)" style="fill: #0000ff; opacity: 0.3; stroke: #ff0000; stroke-width: 0.5; stroke-linejoin: miter"/>
   </g>
   <g id="patch_26">
    <path d="M 322.619842 593.366326 
L 379.187716 593.366326 
L 379.187716 536.798453 
L 322.619842 536.798453 
z
" clip-path="url(#pf9b76d651f)" style="fill: #0000ff; opacity: 0.3; stroke: #ff0000; stroke-width: 0.5; stroke-linejoin: miter"/>
   </g>
   <g id="patch_27">
    <path d="M 322.619842 536.798453 
L 379.187716 536.798453 
L 379.187716 480.230579 
L 322.619842 480.230579 
z
" clip-path="url(#pf9b76d651f)" style="fill: #0000ff; opacity: 0.3; stroke: #ff0000; stroke-width: 0.5; stroke-linejoin: miter"/>
   </g>
   <g id="patch_28">
    <path d="M 322.619842 480.230579 
L 379.187716 480.230579 
L 379.187716 423.662706 
L 322.619842 423.662706 
z
" clip-path="url(#pf9b76d651f)" style="fill: #0000ff; opacity: 0.3; stroke: #ff0000; stroke-width: 0.5; stroke-linejoin: miter"/>
   </g>
   <g id="patch_29">
    <path d="M 322.619842 423.662706 
L 379.187716 423.662706 
L 379.187716 367.094832 
L 322.619842 367.094832 
z
" clip-path="url(#pf9b76d651f)" style="fill: #0000ff; opacity: 0.3; stroke: #ff0000; stroke-width: 0.5; stroke-linejoin: miter"/>
   </g>
   <g id="patch_30">
    <path d="M 322.619842 367.094832 
L 379.187716 367.094832 
L 379.187716 310.526959 
L 322.619842 310.526959 
z
" clip-path="url(#pf9b76d651f)" style="fill: #ffa500; opacity: 0.3; stroke: #ff0000; stroke-width: 0.5; stroke-linejoin: miter"/>
   </g>
   <g id="patch_31">
    <path d="M 322.619842 310.526959 
L 379.187716 310.526959 
L 379.187716 253.959085 
L 322.619842 253.959085 
z
" clip-path="url(#pf9b76d651f)" style="fill: #ffa500; opacity: 0.3; stroke: #ff0000; stroke-width: 0.5; stroke-linejoin: miter"/>
   </g>
   <g id="patch_32">
    <path d="M 379.187716 1045.909314 
L 435.755589 1045.909314 
L 435.755589 989.341441 
L 379.187716 989.341441 
z
" clip-path="url(#pf9b76d651f)" style="fill: #ffa500; opacity: 0.3; stroke: #ff0000; stroke-width: 0.5; stroke-linejoin: miter"/>
   </g>
   <g id="patch_33">
    <path d="M 379.187716 989.341441 
L 435.755589 989.341441 
L 435.755589 932.773567 
L 379.187716 932.773567 
z
" clip-path="url(#pf9b76d651f)" style="fill: #0000ff; opacity: 0.3; stroke: #ff0000; stroke-width: 0.5; stroke-linejoin: miter"/>
   </g>
   <g id="patch_34">
    <path d="M 379.187716 932.773567 
L 435.755589 932.773567 
L 435.755589 876.205694 
L 379.187716 876.205694 
z
" clip-path="url(#pf9b76d651f)" style="fill: #0000ff; opacity: 0.3; stroke: #ff0000; stroke-width: 0.5; stroke-linejoin: miter"/>
   </g>
   <g id="patch_35">
    <path d="M 379.187716 876.205694 
L 435.755589 876.205694 
L 435.755589 819.63782 
L 379.187716 819.63782 
z
" clip-path="url(#pf9b76d651f)" style="fill: #0000ff; opacity: 0.3; stroke: #ff0000; stroke-width: 0.5; stroke-linejoin: miter"/>
   </g>
   <g id="patch_36">
    <path d="M 379.187716 819.63782 
L 435.755589 819.63782 
L 435.755589 763.069947 
L 379.187716 763.069947 
z
" clip-path="url(#pf9b76d651f)" style="fill: #0000ff; opacity: 0.3; stroke: #ff0000; stroke-width: 0.5; stroke-linejoin: miter"/>
   </g>
   <g id="patch_37">
    <path d="M 379.187716 763.069947 
L 435.755589 763.069947 
L 435.755589 706.502073 
L 379.187716 706.502073 
z
" clip-path="url(#pf9b76d651f)" style="fill: #0000ff; opacity: 0.3; stroke: #ff0000; stroke-width: 0.5; stroke-linejoin: miter"/>
   </g>
   <g id="patch_38">
    <path d="M 379.187716 706.502073 
L 435.755589 706.502073 
L 435.755589 649.9342 
L 379.187716 649.9342 
z
" clip-path="url(#pf9b76d651f)" style="fill: #0000ff; opacity: 0.3; stroke: #ff0000; stroke-width: 0.5; stroke-linejoin: miter"/>
   </g>
   <g id="patch_39">
    <path d="M 379.187716 649.9342 
L 435.755589 649.9342 
L 435.755589 593.366326 
L 379.187716 593.366326 
z
" clip-path="url(#pf9b76d651f)" style="fill: #0000ff; opacity: 0.3; stroke: #ff0000; stroke-width: 0.5; stroke-linejoin: miter"/>
   </g>
   <g id="patch_40">
    <path d="M 379.187716 593.366326 
L 435.755589 593.366326 
L 435.755589 536.798453 
L 379.187716 536.798453 
z
" clip-path="url(#pf9b76d651f)" style="fill: #0000ff; opacity: 0.3; stroke: #ff0000; stroke-width: 0.5; stroke-linejoin: miter"/>
   </g>
   <g id="patch_41">
    <path d="M 379.187716 536.798453 
L 435.755589 536.798453 
L 435.755589 480.230579 
L 379.187716 480.230579 
z
" clip-path="url(#pf9b76d651f)" style="fill: #0000ff; opacity: 0.3; stroke: #ff0000; stroke-width: 0.5; stroke-linejoin: miter"/>
   </g>
   <g id="patch_42">
    <path d="M 379.187716 480.230579 
L 435.755589 480.230579 
L 435.755589 423.662706 
L 379.187716 423.662706 
z
" clip-path="url(#pf9b76d651f)" style="fill: #0000ff; opacity: 0.3; stroke: #ff0000; stroke-width: 0.5; stroke-linejoin: miter"/>
   </g>
   <g id="patch_43">
    <path d="M 379.187716 423.662706 
L 435.755589 423.662706 
L 435.755589 367.094832 
L 379.187716 367.094832 
z
" clip-path="url(#pf9b76d651f)" style="fill: #0000ff; opacity: 0.3; stroke: #ff0000; stroke-width: 0.5; stroke-linejoin: miter"/>
   </g>
   <g id="patch_44">
    <path d="M 379.187716 367.094832 
L 435.755589 367.094832 
L 435.755589 310.526959 
L 379.187716 310.526959 
z
" clip-path="url(#pf9b76d651f)" style="fill: #0000ff; opacity: 0.3; stroke: #ff0000; stroke-width: 0.5; stroke-linejoin: miter"/>
   </g>
   <g id="patch_45">
    <path d="M 379.187716 310.526959 
L 435.755589 310.526959 
L 435.755589 253.959085 
L 379.187716 253.959085 
z
" clip-path="url(#pf9b76d651f)" style="fill: #ffa500; opacity: 0.3; stroke: #ff0000; stroke-width: 0.5; stroke-linejoin: miter"/>
   </g>
   <g id="patch_46">
    <path d="M 435.755589 1102.477187 
L 492.323463 1102.477187 
L 492.323463 1045.909314 
L 435.755589 1045.909314 
z
" clip-path="url(#pf9b76d651f)" style="fill: #ffa500; opacity: 0.3; stroke: #ff0000; stroke-width: 0.5; stroke-linejoin: miter"/>
   </g>
   <g id="patch_47">
    <path d="M 435.755589 1045.909314 
L 492.323463 1045.909314 
L 492.323463 989.341441 
L 435.755589 989.341441 
z
" clip-path="url(#pf9b76d651f)" style="fill: #ffa500; opacity: 0.3; stroke: #ff0000; stroke-width: 0.5; stroke-linejoin: miter"/>
   </g>
   <g id="patch_48">
    <path d="M 435.755589 989.341441 
L 492.323463 989.341441 
L 492.323463 932.773567 
L 435.755589 932.773567 
z
" clip-path="url(#pf9b76d651f)" style="fill: #0000ff; opacity: 0.3; stroke: #ff0000; stroke-width: 0.5; stroke-linejoin: miter"/>
   </g>
   <g id="patch_49">
    <path d="M 435.755589 932.773567 
L 492.323463 932.773567 
L 492.323463 876.205694 
L 435.755589 876.205694 
z
" clip-path="url(#pf9b76d651f)" style="fill: #0000ff; opacity: 0.3; stroke: #ff0000; stroke-width: 0.5; stroke-linejoin: miter"/>
   </g>
   <g id="patch_50">
    <path d="M 435.755589 876.205694 
L 492.323463 876.205694 
L 492.323463 819.63782 
L 435.755589 819.63782 
z
" clip-path="url(#pf9b76d651f)" style="fill: #0000ff; opacity: 0.3; stroke: #ff0000; stroke-width: 0.5; stroke-linejoin: miter"/>
   </g>
   <g id="patch_51">
    <path d="M 435.755589 819.63782 
L 492.323463 819.63782 
L 492.323463 763.069947 
L 435.755589 763.069947 
z
" clip-path="url(#pf9b76d651f)" style="fill: #0000ff; opacity: 0.3; stroke: #ff0000; stroke-width: 0.5; stroke-linejoin: miter"/>
   </g>
   <g id="patch_52">
    <path d="M 435.755589 763.069947 
L 492.323463 763.069947 
L 492.323463 706.502073 
L 435.755589 706.502073 
z
" clip-path="url(#pf9b76d651f)" style="fill: #0000ff; opacity: 0.3; stroke: #ff0000; stroke-width: 0.5; stroke-linejoin: miter"/>
   </g>
   <g id="patch_53">
    <path d="M 435.755589 706.502073 
L 492.323463 706.502073 
L 492.323463 649.9342 
L 435.755589 649.9342 
z
" clip-path="url(#pf9b76d651f)" style="fill: #0000ff; opacity: 0.3; stroke: #ff0000; stroke-width: 0.5; stroke-linejoin: miter"/>
   </g>
   <g id="patch_54">
    <path d="M 435.755589 649.9342 
L 492.323463 649.9342 
L 492.323463 593.366326 
L 435.755589 593.366326 
z
" clip-path="url(#pf9b76d651f)" style="fill: #0000ff; opacity: 0.3; stroke: #ff0000; stroke-width: 0.5; stroke-linejoin: miter"/>
   </g>
   <g id="patch_55">
    <path d="M 435.755589 593.366326 
L 492.323463 593.366326 
L 492.323463 536.798453 
L 435.755589 536.798453 
z
" clip-path="url(#pf9b76d651f)" style="fill: #0000ff; opacity: 0.3; stroke: #ff0000; stroke-width: 0.5; stroke-linejoin: miter"/>
   </g>
   <g id="patch_56">
    <path d="M 435.755589 536.798453 
L 492.323463 536.798453 
L 492.323463 480.230579 
L 435.755589 480.230579 
z
" clip-path="url(#pf9b76d651f)" style="fill: #0000ff; opacity: 0.3; stroke: #ff0000; stroke-width: 0.5; stroke-linejoin: miter"/>
   </g>
   <g id="patch_57">
    <path d="M 435.755589 480.230579 
L 492.323463 480.230579 
L 492.323463 423.662706 
L 435.755589 423.662706 
z
" clip-path="url(#pf9b76d651f)" style="fill: #0000ff; opacity: 0.3; stroke: #ff0000; stroke-width: 0.5; stroke-linejoin: miter"/>
   </g>
   <g id="patch_58">
    <path d="M 435.755589 423.662706 
L 492.323463 423.662706 
L 492.323463 367.094832 
L 435.755589 367.094832 
z
" clip-path="url(#pf9b76d651f)" style="fill: #0000ff; opacity: 0.3; stroke: #ff0000; stroke-width: 0.5; stroke-linejoin: miter"/>
   </g>
   <g id="patch_59">
    <path d="M 435.755589 367.094832 
L 492.323463 367.094832 
L 492.323463 310.526959 
L 435.755589 310.526959 
z
" clip-path="url(#pf9b76d651f)" style="fill: #0000ff; opacity: 0.3; stroke: #ff0000; stroke-width: 0.5; stroke-linejoin: miter"/>
   </g>
   <g id="patch_60">
    <path d="M 435.755589 310.526959 
L 492.323463 310.526959 
L 492.323463 253.959085 
L 435.755589 253.959085 
z
" clip-path="url(#pf9b76d651f)" style="fill: #ffa500; opacity: 0.3; stroke: #ff0000; stroke-width: 0.5; stroke-linejoin: miter"/>
   </g>
   <g id="patch_61">
    <path d="M 435.755589 253.959085 
L 492.323463 253.959085 
L 492.323463 197.391212 
L 435.755589 197.391212 
z
" clip-path="url(#pf9b76d651f)" style="fill: #ffa500; opacity: 0.3; stroke: #ff0000; stroke-width: 0.5; stroke-linejoin: miter"/>
   </g>
   <g id="patch_62">
    <path d="M 492.323463 1102.477187 
L 548.891336 1102.477187 
L 548.891336 1045.909314 
L 492.323463 1045.909314 
z
" clip-path="url(#pf9b76d651f)" style="fill: #ffa500; opacity: 0.3; stroke: #ff0000; stroke-width: 0.5; stroke-linejoin: miter"/>
   </g>
   <g id="patch_63">
    <path d="M 492.323463 1045.909314 
L 548.891336 1045.909314 
L 548.891336 989.341441 
L 492.323463 989.341441 
z
" clip-path="url(#pf9b76d651f)" style="fill: #ffa500; opacity: 0.3; stroke: #ff0000; stroke-width: 0.5; stroke-linejoin: miter"/>
   </g>
   <g id="patch_64">
    <path d="M 492.323463 989.341441 
L 548.891336 989.341441 
L 548.891336 932.773567 
L 492.323463 932.773567 
z
" clip-path="url(#pf9b76d651f)" style="fill: #0000ff; opacity: 0.3; stroke: #ff0000; stroke-width: 0.5; stroke-linejoin: miter"/>
   </g>
   <g id="patch_65">
    <path d="M 492.323463 932.773567 
L 548.891336 932.773567 
L 548.891336 876.205694 
L 492.323463 876.205694 
z
" clip-path="url(#pf9b76d651f)" style="fill: #0000ff; opacity: 0.3; stroke: #ff0000; stroke-width: 0.5; stroke-linejoin: miter"/>
   </g>
   <g id="patch_66">
    <path d="M 492.323463 876.205694 
L 548.891336 876.205694 
L 548.891336 819.63782 
L 492.323463 819.63782 
z
" clip-path="url(#pf9b76d651f)" style="fill: #0000ff; opacity: 0.3; stroke: #ff0000; stroke-width: 0.5; stroke-linejoin: miter"/>
   </g>
   <g id="patch_67">
    <path d="M 492.323463 819.63782 
L 548.891336 819.63782 
L 548.891336 763.069947 
L 492.323463 763.069947 
z
" clip-path="url(#pf9b76d651f)" style="fill: #0000ff; opacity: 0.3; stroke: #ff0000; stroke-width: 0.5; stroke-linejoin: miter"/>
   </g>
   <g id="patch_68">
    <path d="M 492.323463 763.069947 
L 548.891336 763.069947 
L 548.891336 706.502073 
L 492.323463 706.502073 
z
" clip-path="url(#pf9b76d651f)" style="fill: #0000ff; opacity: 0.3; stroke: #ff0000; stroke-width: 0.5; stroke-linejoin: miter"/>
   </g>
   <g id="patch_69">
    <path d="M 492.323463 706.502073 
L 548.891336 706.502073 
L 548.891336 649.9342 
L 492.323463 649.9342 
z
" clip-path="url(#pf9b76d651f)" style="fill: #0000ff; opacity: 0.3; stroke: #ff0000; stroke-width: 0.5; stroke-linejoin: miter"/>
   </g>
   <g id="patch_70">
    <path d="M 492.323463 649.9342 
L 548.891336 649.9342 
L 548.891336 593.366326 
L 492.323463 593.366326 
z
" clip-path="url(#pf9b76d651f)" style="fill: #0000ff; opacity: 0.3; stroke: #ff0000; stroke-width: 0.5; stroke-linejoin: miter"/>
   </g>
   <g id="patch_71">
    <path d="M 492.323463 593.366326 
L 548.891336 593.366326 
L 548.891336 536.798453 
L 492.323463 536.798453 
z
" clip-path="url(#pf9b76d651f)" style="fill: #0000ff; opacity: 0.3; stroke: #ff0000; stroke-width: 0.5; stroke-linejoin: miter"/>
   </g>
   <g id="patch_72">
    <path d="M 492.323463 536.798453 
L 548.891336 536.798453 
L 548.891336 480.230579 
L 492.323463 480.230579 
z
" clip-path="url(#pf9b76d651f)" style="fill: #0000ff; opacity: 0.3; stroke: #ff0000; stroke-width: 0.5; stroke-linejoin: miter"/>
   </g>
   <g id="patch_73">
    <path d="M 492.323463 480.230579 
L 548.891336 480.230579 
L 548.891336 423.662706 
L 492.323463 423.662706 
z
" clip-path="url(#pf9b76d651f)" style="fill: #0000ff; opacity: 0.3; stroke: #ff0000; stroke-width: 0.5; stroke-linejoin: miter"/>
   </g>
   <g id="patch_74">
    <path d="M 492.323463 423.662706 
L 548.891336 423.662706 
L 548.891336 367.094832 
L 492.323463 367.094832 
z
" clip-path="url(#pf9b76d651f)" style="fill: #0000ff; opacity: 0.3; stroke: #ff0000; stroke-width: 0.5; stroke-linejoin: miter"/>
   </g>
   <g id="patch_75">
    <path d="M 492.323463 367.094832 
L 548.891336 367.094832 
L 548.891336 310.526959 
L 492.323463 310.526959 
z
" clip-path="url(#pf9b76d651f)" style="fill: #0000ff; opacity: 0.3; stroke: #ff0000; stroke-width: 0.5; stroke-linejoin: miter"/>
   </g>
   <g id="patch_76">
    <path d="M 492.323463 310.526959 
L 548.891336 310.526959 
L 548.891336 253.959085 
L 492.323463 253.959085 
z
" clip-path="url(#pf9b76d651f)" style="fill: #0000ff; opacity: 0.3; stroke: #ff0000; stroke-width: 0.5; stroke-linejoin: miter"/>
   </g>
   <g id="patch_77">
    <path d="M 492.323463 253.959085 
L 548.891336 253.959085 
L 548.891336 197.391212 
L 492.323463 197.391212 
z
" clip-path="url(#pf9b76d651f)" style="fill: #ffa500; opacity: 0.3; stroke: #ff0000; stroke-width: 0.5; stroke-linejoin: miter"/>
   </g>
   <g id="patch_78">
    <path d="M 548.891336 1045.909314 
L 605.45921 1045.909314 
L 605.45921 989.341441 
L 548.891336 989.341441 
z
" clip-path="url(#pf9b76d651f)" style="fill: #ffa500; opacity: 0.3; stroke: #ff0000; stroke-width: 0.5; stroke-linejoin: miter"/>
   </g>
   <g id="patch_79">
    <path d="M 548.891336 989.341441 
L 605.45921 989.341441 
L 605.45921 932.773567 
L 548.891336 932.773567 
z
" clip-path="url(#pf9b76d651f)" style="fill: #ffa500; opacity: 0.3; stroke: #ff0000; stroke-width: 0.5; stroke-linejoin: miter"/>
   </g>
   <g id="patch_80">
    <path d="M 548.891336 932.773567 
L 605.45921 932.773567 
L 605.45921 876.205694 
L 548.891336 876.205694 
z
" clip-path="url(#pf9b76d651f)" style="fill: #ffa500; opacity: 0.3; stroke: #ff0000; stroke-width: 0.5; stroke-linejoin: miter"/>
   </g>
   <g id="patch_81">
    <path d="M 548.891336 876.205694 
L 605.45921 876.205694 
L 605.45921 819.63782 
L 548.891336 819.63782 
z
" clip-path="url(#pf9b76d651f)" style="fill: #0000ff; opacity: 0.3; stroke: #ff0000; stroke-width: 0.5; stroke-linejoin: miter"/>
   </g>
   <g id="patch_82">
    <path d="M 548.891336 819.63782 
L 605.45921 819.63782 
L 605.45921 763.069947 
L 548.891336 763.069947 
z
" clip-path="url(#pf9b76d651f)" style="fill: #0000ff; opacity: 0.3; stroke: #ff0000; stroke-width: 0.5; stroke-linejoin: miter"/>
   </g>
   <g id="patch_83">
    <path d="M 548.891336 763.069947 
L 605.45921 763.069947 
L 605.45921 706.502073 
L 548.891336 706.502073 
z
" clip-path="url(#pf9b76d651f)" style="fill: #0000ff; opacity: 0.3; stroke: #ff0000; stroke-width: 0.5; stroke-linejoin: miter"/>
   </g>
   <g id="patch_84">
    <path d="M 548.891336 706.502073 
L 605.45921 706.502073 
L 605.45921 649.9342 
L 548.891336 649.9342 
z
" clip-path="url(#pf9b76d651f)" style="fill: #0000ff; opacity: 0.3; stroke: #ff0000; stroke-width: 0.5; stroke-linejoin: miter"/>
   </g>
   <g id="patch_85">
    <path d="M 548.891336 649.9342 
L 605.45921 649.9342 
L 605.45921 593.366326 
L 548.891336 593.366326 
z
" clip-path="url(#pf9b76d651f)" style="fill: #0000ff; opacity: 0.3; stroke: #ff0000; stroke-width: 0.5; stroke-linejoin: miter"/>
   </g>
   <g id="patch_86">
    <path d="M 548.891336 593.366326 
L 605.45921 593.366326 
L 605.45921 536.798453 
L 548.891336 536.798453 
z
" clip-path="url(#pf9b76d651f)" style="fill: #0000ff; opacity: 0.3; stroke: #ff0000; stroke-width: 0.5; stroke-linejoin: miter"/>
   </g>
   <g id="patch_87">
    <path d="M 548.891336 536.798453 
L 605.45921 536.798453 
L 605.45921 480.230579 
L 548.891336 480.230579 
z
" clip-path="url(#pf9b76d651f)" style="fill: #0000ff; opacity: 0.3; stroke: #ff0000; stroke-width: 0.5; stroke-linejoin: miter"/>
   </g>
   <g id="patch_88">
    <path d="M 548.891336 480.230579 
L 605.45921 480.230579 
L 605.45921 423.662706 
L 548.891336 423.662706 
z
" clip-path="url(#pf9b76d651f)" style="fill: #0000ff; opacity: 0.3; stroke: #ff0000; stroke-width: 0.5; stroke-linejoin: miter"/>
   </g>
   <g id="patch_89">
    <path d="M 548.891336 423.662706 
L 605.45921 423.662706 
L 605.45921 367.094832 
L 548.891336 367.094832 
z
" clip-path="url(#pf9b76d651f)" style="fill: #0000ff; opacity: 0.3; stroke: #ff0000; stroke-width: 0.5; stroke-linejoin: miter"/>
   </g>
   <g id="patch_90">
    <path d="M 548.891336 367.094832 
L 605.45921 367.094832 
L 605.45921 310.526959 
L 548.891336 310.526959 
z
" clip-path="url(#pf9b76d651f)" style="fill: #0000ff; opacity: 0.3; stroke: #ff0000; stroke-width: 0.5; stroke-linejoin: miter"/>
   </g>
   <g id="patch_91">
    <path d="M 548.891336 310.526959 
L 605.45921 310.526959 
L 605.45921 253.959085 
L 548.891336 253.959085 
z
" clip-path="url(#pf9b76d651f)" style="fill: #0000ff; opacity: 0.3; stroke: #ff0000; stroke-width: 0.5; stroke-linejoin: miter"/>
   </g>
   <g id="patch_92">
    <path d="M 548.891336 253.959085 
L 605.45921 253.959085 
L 605.45921 197.391212 
L 548.891336 197.391212 
z
" clip-path="url(#pf9b76d651f)" style="fill: #ffa500; opacity: 0.3; stroke: #ff0000; stroke-width: 0.5; stroke-linejoin: miter"/>
   </g>
   <g id="patch_93">
    <path d="M 548.891336 197.391212 
L 605.45921 197.391212 
L 605.45921 140.823338 
L 548.891336 140.823338 
z
" clip-path="url(#pf9b76d651f)" style="fill: #ffa500; opacity: 0.3; stroke: #ff0000; stroke-width: 0.5; stroke-linejoin: miter"/>
   </g>
   <g id="patch_94">
    <path d="M 548.891336 140.823338 
L 605.45921 140.823338 
L 605.45921 84.255465 
L 548.891336 84.255465 
z
" clip-path="url(#pf9b76d651f)" style="fill: #ffa500; opacity: 0.3; stroke: #ff0000; stroke-width: 0.5; stroke-linejoin: miter"/>
   </g>
   <g id="patch_95">
    <path d="M 548.891336 84.255465 
L 605.45921 84.255465 
L 605.45921 27.687591 
L 548.891336 27.687591 
z
" clip-path="url(#pf9b76d651f)" style="fill: #ffa500; opacity: 0.3; stroke: #ff0000; stroke-width: 0.5; stroke-linejoin: miter"/>
   </g>
   <g id="patch_96">
    <path d="M 605.45921 932.773567 
L 662.027083 932.773567 
L 662.027083 876.205694 
L 605.45921 876.205694 
z
" clip-path="url(#pf9b76d651f)" style="fill: #ffa500; opacity: 0.3; stroke: #ff0000; stroke-width: 0.5; stroke-linejoin: miter"/>
   </g>
   <g id="patch_97">
    <path d="M 605.45921 876.205694 
L 662.027083 876.205694 
L 662.027083 819.63782 
L 605.45921 819.63782 
z
" clip-path="url(#pf9b76d651f)" style="fill: #ffa500; opacity: 0.3; stroke: #ff0000; stroke-width: 0.5; stroke-linejoin: miter"/>
   </g>
   <g id="patch_98">
    <path d="M 605.45921 819.63782 
L 662.027083 819.63782 
L 662.027083 763.069947 
L 605.45921 763.069947 
z
" clip-path="url(#pf9b76d651f)" style="fill: #ffa500; opacity: 0.3; stroke: #ff0000; stroke-width: 0.5; stroke-linejoin: miter"/>
   </g>
   <g id="patch_99">
    <path d="M 605.45921 763.069947 
L 662.027083 763.069947 
L 662.027083 706.502073 
L 605.45921 706.502073 
z
" clip-path="url(#pf9b76d651f)" style="fill: #ffa500; opacity: 0.3; stroke: #ff0000; stroke-width: 0.5; stroke-linejoin: miter"/>
   </g>
   <g id="patch_100">
    <path d="M 605.45921 706.502073 
L 662.027083 706.502073 
L 662.027083 649.9342 
L 605.45921 649.9342 
z
" clip-path="url(#pf9b76d651f)" style="fill: #ffa500; opacity: 0.3; stroke: #ff0000; stroke-width: 0.5; stroke-linejoin: miter"/>
   </g>
   <g id="patch_101">
    <path d="M 605.45921 649.9342 
L 662.027083 649.9342 
L 662.027083 593.366326 
L 605.45921 593.366326 
z
" clip-path="url(#pf9b76d651f)" style="fill: #0000ff; opacity: 0.3; stroke: #ff0000; stroke-width: 0.5; stroke-linejoin: miter"/>
   </g>
   <g id="patch_102">
    <path d="M 605.45921 593.366326 
L 662.027083 593.366326 
L 662.027083 536.798453 
L 605.45921 536.798453 
z
" clip-path="url(#pf9b76d651f)" style="fill: #0000ff; opacity: 0.3; stroke: #ff0000; stroke-width: 0.5; stroke-linejoin: miter"/>
   </g>
   <g id="patch_103">
    <path d="M 605.45921 536.798453 
L 662.027083 536.798453 
L 662.027083 480.230579 
L 605.45921 480.230579 
z
" clip-path="url(#pf9b76d651f)" style="fill: #0000ff; opacity: 0.3; stroke: #ff0000; stroke-width: 0.5; stroke-linejoin: miter"/>
   </g>
   <g id="patch_104">
    <path d="M 605.45921 480.230579 
L 662.027083 480.230579 
L 662.027083 423.662706 
L 605.45921 423.662706 
z
" clip-path="url(#pf9b76d651f)" style="fill: #0000ff; opacity: 0.3; stroke: #ff0000; stroke-width: 0.5; stroke-linejoin: miter"/>
   </g>
   <g id="patch_105">
    <path d="M 605.45921 423.662706 
L 662.027083 423.662706 
L 662.027083 367.094832 
L 605.45921 367.094832 
z
" clip-path="url(#pf9b76d651f)" style="fill: #0000ff; opacity: 0.3; stroke: #ff0000; stroke-width: 0.5; stroke-linejoin: miter"/>
   </g>
   <g id="patch_106">
    <path d="M 605.45921 367.094832 
L 662.027083 367.094832 
L 662.027083 310.526959 
L 605.45921 310.526959 
z
" clip-path="url(#pf9b76d651f)" style="fill: #0000ff; opacity: 0.3; stroke: #ff0000; stroke-width: 0.5; stroke-linejoin: miter"/>
   </g>
   <g id="patch_107">
    <path d="M 605.45921 310.526959 
L 662.027083 310.526959 
L 662.027083 253.959085 
L 605.45921 253.959085 
z
" clip-path="url(#pf9b76d651f)" style="fill: #ffa500; opacity: 0.3; stroke: #ff0000; stroke-width: 0.5; stroke-linejoin: miter"/>
   </g>
   <g id="patch_108">
    <path d="M 605.45921 253.959085 
L 662.027083 253.959085 
L 662.027083 197.391212 
L 605.45921 197.391212 
z
" clip-path="url(#pf9b76d651f)" style="fill: #ffa500; opacity: 0.3; stroke: #ff0000; stroke-width: 0.5; stroke-linejoin: miter"/>
   </g>
   <g id="patch_109">
    <path d="M 605.45921 197.391212 
L 662.027083 197.391212 
L 662.027083 140.823338 
L 605.45921 140.823338 
z
" clip-path="url(#pf9b76d651f)" style="fill: #ffa500; opacity: 0.3; stroke: #ff0000; stroke-width: 0.5; stroke-linejoin: miter"/>
   </g>
   <g id="patch_110">
    <path d="M 605.45921 140.823338 
L 662.027083 140.823338 
L 662.027083 84.255465 
L 605.45921 84.255465 
z
" clip-path="url(#pf9b76d651f)" style="fill: #ffa500; opacity: 0.3; stroke: #ff0000; stroke-width: 0.5; stroke-linejoin: miter"/>
   </g>
   <g id="patch_111">
    <path d="M 605.45921 84.255465 
L 662.027083 84.255465 
L 662.027083 27.687591 
L 605.45921 27.687591 
z
" clip-path="url(#pf9b76d651f)" style="fill: #ffa500; opacity: 0.3; stroke: #ff0000; stroke-width: 0.5; stroke-linejoin: miter"/>
   </g>
   <g id="patch_112">
    <path d="M 662.027083 706.502073 
L 718.594957 706.502073 
L 718.594957 649.9342 
L 662.027083 649.9342 
z
" clip-path="url(#pf9b76d651f)" style="fill: #ffa500; opacity: 0.3; stroke: #ff0000; stroke-width: 0.5; stroke-linejoin: miter"/>
   </g>
   <g id="patch_113">
    <path d="M 662.027083 649.9342 
L 718.594957 649.9342 
L 718.594957 593.366326 
L 662.027083 593.366326 
z
" clip-path="url(#pf9b76d651f)" style="fill: #ffa500; opacity: 0.3; stroke: #ff0000; stroke-width: 0.5; stroke-linejoin: miter"/>
   </g>
   <g id="patch_114">
    <path d="M 662.027083 593.366326 
L 718.594957 593.366326 
L 718.594957 536.798453 
L 662.027083 536.798453 
z
" clip-path="url(#pf9b76d651f)" style="fill: #ffa500; opacity: 0.3; stroke: #ff0000; stroke-width: 0.5; stroke-linejoin: miter"/>
   </g>
   <g id="patch_115">
    <path d="M 662.027083 536.798453 
L 718.594957 536.798453 
L 718.594957 480.230579 
L 662.027083 480.230579 
z
" clip-path="url(#pf9b76d651f)" style="fill: #ffa500; opacity: 0.3; stroke: #ff0000; stroke-width: 0.5; stroke-linejoin: miter"/>
   </g>
   <g id="patch_116">
    <path d="M 662.027083 480.230579 
L 718.594957 480.230579 
L 718.594957 423.662706 
L 662.027083 423.662706 
z
" clip-path="url(#pf9b76d651f)" style="fill: #ffa500; opacity: 0.3; stroke: #ff0000; stroke-width: 0.5; stroke-linejoin: miter"/>
   </g>
   <g id="patch_117">
    <path d="M 662.027083 423.662706 
L 718.594957 423.662706 
L 718.594957 367.094832 
L 662.027083 367.094832 
z
" clip-path="url(#pf9b76d651f)" style="fill: #ffa500; opacity: 0.3; stroke: #ff0000; stroke-width: 0.5; stroke-linejoin: miter"/>
   </g>
   <g id="patch_118">
    <path d="M 662.027083 367.094832 
L 718.594957 367.094832 
L 718.594957 310.526959 
L 662.027083 310.526959 
z
" clip-path="url(#pf9b76d651f)" style="fill: #ffa500; opacity: 0.3; stroke: #ff0000; stroke-width: 0.5; stroke-linejoin: miter"/>
   </g>
   <g id="patch_119">
    <path d="M 662.027083 310.526959 
L 718.594957 310.526959 
L 718.594957 253.959085 
L 662.027083 253.959085 
z
" clip-path="url(#pf9b76d651f)" style="fill: #ffa500; opacity: 0.3; stroke: #ff0000; stroke-width: 0.5; stroke-linejoin: miter"/>
   </g>
   <g id="line2d_29">
    <path d="M 209.484095 1102.477187 
L 209.484095 41.597187 
" clip-path="url(#pf9b76d651f)" style="fill: none; stroke-dasharray: 3.7,1.6; stroke-dashoffset: 0; stroke: #ff0000; stroke-opacity: 0.8"/>
   </g>
   <g id="line2d_30">
    <path d="M 266.051969 1102.477187 
L 266.051969 41.597187 
" clip-path="url(#pf9b76d651f)" style="fill: none; stroke-dasharray: 3.7,1.6; stroke-dashoffset: 0; stroke: #ff0000; stroke-opacity: 0.8"/>
   </g>
   <g id="line2d_31">
    <path d="M 322.619842 1102.477187 
L 322.619842 41.597187 
" clip-path="url(#pf9b76d651f)" style="fill: none; stroke-dasharray: 3.7,1.6; stroke-dashoffset: 0; stroke: #ff0000; stroke-opacity: 0.8"/>
   </g>
   <g id="line2d_32">
    <path d="M 379.187716 1102.477187 
L 379.187716 41.597187 
" clip-path="url(#pf9b76d651f)" style="fill: none; stroke-dasharray: 3.7,1.6; stroke-dashoffset: 0; stroke: #ff0000; stroke-opacity: 0.8"/>
   </g>
   <g id="line2d_33">
    <path d="M 435.755589 1102.477187 
L 435.755589 41.597187 
" clip-path="url(#pf9b76d651f)" style="fill: none; stroke-dasharray: 3.7,1.6; stroke-dashoffset: 0; stroke: #ff0000; stroke-opacity: 0.8"/>
   </g>
   <g id="line2d_34">
    <path d="M 492.323463 1102.477187 
L 492.323463 41.597187 
" clip-path="url(#pf9b76d651f)" style="fill: none; stroke-dasharray: 3.7,1.6; stroke-dashoffset: 0; stroke: #ff0000; stroke-opacity: 0.8"/>
   </g>
   <g id="line2d_35">
    <path d="M 548.891336 1102.477187 
L 548.891336 41.597187 
" clip-path="url(#pf9b76d651f)" style="fill: none; stroke-dasharray: 3.7,1.6; stroke-dashoffset: 0; stroke: #ff0000; stroke-opacity: 0.8"/>
   </g>
   <g id="line2d_36">
    <path d="M 605.45921 1102.477187 
L 605.45921 41.597187 
" clip-path="url(#pf9b76d651f)" style="fill: none; stroke-dasharray: 3.7,1.6; stroke-dashoffset: 0; stroke: #ff0000; stroke-opacity: 0.8"/>
   </g>
   <g id="line2d_37">
    <path d="M 662.027083 1102.477187 
L 662.027083 41.597187 
" clip-path="url(#pf9b76d651f)" style="fill: none; stroke-dasharray: 3.7,1.6; stroke-dashoffset: 0; stroke: #ff0000; stroke-opacity: 0.8"/>
   </g>
   <g id="line2d_38">
    <path d="M 718.594957 1102.477187 
L 718.594957 41.597187 
" clip-path="url(#pf9b76d651f)" style="fill: none; stroke-dasharray: 3.7,1.6; stroke-dashoffset: 0; stroke: #ff0000; stroke-opacity: 0.8"/>
   </g>
   <g id="line2d_39">
    <path d="M 209.484095 1102.477187 
L 702.241217 1102.477187 
" clip-path="url(#pf9b76d651f)" style="fill: none; stroke-dasharray: 3.7,1.6; stroke-dashoffset: 0; stroke: #ff0000; stroke-opacity: 0.8"/>
   </g>
   <g id="line2d_40">
    <path d="M 209.484095 1045.909314 
L 702.241217 1045.909314 
" clip-path="url(#pf9b76d651f)" style="fill: none; stroke-dasharray: 3.7,1.6; stroke-dashoffset: 0; stroke: #ff0000; stroke-opacity: 0.8"/>
   </g>
   <g id="line2d_41">
    <path d="M 209.484095 989.341441 
L 702.241217 989.341441 
" clip-path="url(#pf9b76d651f)" style="fill: none; stroke-dasharray: 3.7,1.6; stroke-dashoffset: 0; stroke: #ff0000; stroke-opacity: 0.8"/>
   </g>
   <g id="line2d_42">
    <path d="M 209.484095 932.773567 
L 702.241217 932.773567 
" clip-path="url(#pf9b76d651f)" style="fill: none; stroke-dasharray: 3.7,1.6; stroke-dashoffset: 0; stroke: #ff0000; stroke-opacity: 0.8"/>
   </g>
   <g id="line2d_43">
    <path d="M 209.484095 876.205694 
L 702.241217 876.205694 
" clip-path="url(#pf9b76d651f)" style="fill: none; stroke-dasharray: 3.7,1.6; stroke-dashoffset: 0; stroke: #ff0000; stroke-opacity: 0.8"/>
   </g>
   <g id="line2d_44">
    <path d="M 209.484095 819.63782 
L 702.241217 819.63782 
" clip-path="url(#pf9b76d651f)" style="fill: none; stroke-dasharray: 3.7,1.6; stroke-dashoffset: 0; stroke: #ff0000; stroke-opacity: 0.8"/>
   </g>
   <g id="line2d_45">
    <path d="M 209.484095 763.069947 
L 702.241217 763.069947 
" clip-path="url(#pf9b76d651f)" style="fill: none; stroke-dasharray: 3.7,1.6; stroke-dashoffset: 0; stroke: #ff0000; stroke-opacity: 0.8"/>
   </g>
   <g id="line2d_46">
    <path d="M 209.484095 706.502073 
L 702.241217 706.502073 
" clip-path="url(#pf9b76d651f)" style="fill: none; stroke-dasharray: 3.7,1.6; stroke-dashoffset: 0; stroke: #ff0000; stroke-opacity: 0.8"/>
   </g>
   <g id="line2d_47">
    <path d="M 209.484095 649.9342 
L 702.241217 649.9342 
" clip-path="url(#pf9b76d651f)" style="fill: none; stroke-dasharray: 3.7,1.6; stroke-dashoffset: 0; stroke: #ff0000; stroke-opacity: 0.8"/>
   </g>
   <g id="line2d_48">
    <path d="M 209.484095 593.366326 
L 702.241217 593.366326 
" clip-path="url(#pf9b76d651f)" style="fill: none; stroke-dasharray: 3.7,1.6; stroke-dashoffset: 0; stroke: #ff0000; stroke-opacity: 0.8"/>
   </g>
   <g id="line2d_49">
    <path d="M 209.484095 536.798453 
L 702.241217 536.798453 
" clip-path="url(#pf9b76d651f)" style="fill: none; stroke-dasharray: 3.7,1.6; stroke-dashoffset: 0; stroke: #ff0000; stroke-opacity: 0.8"/>
   </g>
   <g id="line2d_50">
    <path d="M 209.484095 480.230579 
L 702.241217 480.230579 
" clip-path="url(#pf9b76d651f)" style="fill: none; stroke-dasharray: 3.7,1.6; stroke-dashoffset: 0; stroke: #ff0000; stroke-opacity: 0.8"/>
   </g>
   <g id="line2d_51">
    <path d="M 209.484095 423.662706 
L 702.241217 423.662706 
" clip-path="url(#pf9b76d651f)" style="fill: none; stroke-dasharray: 3.7,1.6; stroke-dashoffset: 0; stroke: #ff0000; stroke-opacity: 0.8"/>
   </g>
   <g id="line2d_52">
    <path d="M 209.484095 367.094832 
L 702.241217 367.094832 
" clip-path="url(#pf9b76d651f)" style="fill: none; stroke-dasharray: 3.7,1.6; stroke-dashoffset: 0; stroke: #ff0000; stroke-opacity: 0.8"/>
   </g>
   <g id="line2d_53">
    <path d="M 209.484095 310.526959 
L 702.241217 310.526959 
" clip-path="url(#pf9b76d651f)" style="fill: none; stroke-dasharray: 3.7,1.6; stroke-dashoffset: 0; stroke: #ff0000; stroke-opacity: 0.8"/>
   </g>
   <g id="line2d_54">
    <path d="M 209.484095 253.959085 
L 702.241217 253.959085 
" clip-path="url(#pf9b76d651f)" style="fill: none; stroke-dasharray: 3.7,1.6; stroke-dashoffset: 0; stroke: #ff0000; stroke-opacity: 0.8"/>
   </g>
   <g id="line2d_55">
    <path d="M 209.484095 197.391212 
L 702.241217 197.391212 
" clip-path="url(#pf9b76d651f)" style="fill: none; stroke-dasharray: 3.7,1.6; stroke-dashoffset: 0; stroke: #ff0000; stroke-opacity: 0.8"/>
   </g>
   <g id="line2d_56">
    <path d="M 209.484095 140.823338 
L 702.241217 140.823338 
" clip-path="url(#pf9b76d651f)" style="fill: none; stroke-dasharray: 3.7,1.6; stroke-dashoffset: 0; stroke: #ff0000; stroke-opacity: 0.8"/>
   </g>
   <g id="line2d_57">
    <path d="M 209.484095 84.255465 
L 702.241217 84.255465 
" clip-path="url(#pf9b76d651f)" style="fill: none; stroke-dasharray: 3.7,1.6; stroke-dashoffset: 0; stroke: #ff0000; stroke-opacity: 0.8"/>
   </g>
   <g id="line2d_58">
    <path d="M 209.484095 27.687591 
L 702.241217 27.687591 
" clip-path="url(#pf9b76d651f)" style="fill: none; stroke-dasharray: 3.7,1.6; stroke-dashoffset: 0; stroke: #ff0000; stroke-opacity: 0.8"/>
   </g>
   <g id="text_17">
    <!-- 10 km -->
    <g style="fill: #111827" transform="translate(270.208874 980.773091) scale(0.14 -0.14)">
     <defs>
      <path id="DejaVuSans-Bold-31" d="M 750 831 
L 1813 831 
L 1813 3847 
L 722 3622 
L 722 4441 
L 1806 4666 
L 2950 4666 
L 2950 831 
L 4013 831 
L 4013 0 
L 750 0 
L 750 831 
z
" transform="scale(0.015625)"/>
      <path id="DejaVuSans-Bold-30" d="M 2944 2338 
Q 2944 3213 2780 3570 
Q 2616 3928 2228 3928 
Q 1841 3928 1675 3570 
Q 1509 3213 1509 2338 
Q 1509 1453 1675 1090 
Q 1841 728 2228 728 
Q 2613 728 2778 1090 
Q 2944 1453 2944 2338 
z
M 4147 2328 
Q 4147 1169 3647 539 
Q 3147 -91 2228 -91 
Q 1306 -91 806 539 
Q 306 1169 306 2328 
Q 306 3491 806 4120 
Q 1306 4750 2228 4750 
Q 3147 4750 3647 4120 
Q 4147 3491 4147 2328 
z
" transform="scale(0.015625)"/>
      <path id="DejaVuSans-Bold-20" transform="scale(0.015625)"/>
      <path id="DejaVuSans-Bold-6b" d="M 538 4863 
L 1656 4863 
L 1656 2216 
L 2944 3500 
L 4244 3500 
L 2534 1894 
L 4378 0 
L 3022 0 
L 1656 1459 
L 1656 0 
L 538 0 
L 538 4863 
z
" transform="scale(0.015625)"/>
      <path id="DejaVuSans-Bold-6d" d="M 3781 2919 
Q 3994 3244 4286 3414 
Q 4578 3584 4928 3584 
Q 5531 3584 5847 3212 
Q 6163 2841 6163 2131 
L 6163 0 
L 5038 0 
L 5038 1825 
Q 5041 1866 5042 1909 
Q 5044 1953 5044 2034 
Q 5044 2406 4934 2573 
Q 4825 2741 4581 2741 
Q 4263 2741 4089 2478 
Q 3916 2216 3909 1719 
L 3909 0 
L 2784 0 
L 2784 1825 
Q 2784 2406 2684 2573 
Q 2584 2741 2328 2741 
Q 2006 2741 1831 2477 
Q 1656 2213 1656 1722 
L 1656 0 
L 531 0 
L 531 3500 
L 1656 3500 
L 1656 2988 
Q 1863 3284 2130 3434 
Q 2397 3584 2719 3584 
Q 3081 3584 3359 3409 
Q 3638 3234 3781 2919 
z
" transform="scale(0.015625)"/>
     </defs>
     <use xlink:href="#DejaVuSans-Bold-31"/>
     <use xlink:href="#DejaVuSans-Bold-30" transform="translate(69.580078 0)"/>
     <use xlink:href="#DejaVuSans-Bold-20" transform="translate(139.160156 0)"/>
     <use xlink:href="#DejaVuSans-Bold-6b" transform="translate(173.974609 0)"/>
     <use xlink:href="#DejaVuSans-Bold-6d" transform="translate(240.478516 0)"/>
    </g>
   </g>
   <g id="text_18">
    <g style="fill: #1c3a3a" transform="translate(7.2 21.597187) scale(0.18 -0.18)">
     <defs>
      <path id="DejaVuSans-Bold-43" d="M 4288 256 
Q 3956 84 3597 -3 
Q 3238 -91 2847 -91 
Q 1681 -91 1000 561 
Q 319 1213 319 2328 
Q 319 3447 1000 4098 
Q 1681 4750 2847 4750 
Q 3238 4750 3597 4662 
Q 3956 4575 4288 4403 
L 4288 3438 
Q 3953 3666 3628 3772 
Q 3303 3878 2944 3878 
Q 2300 3878 1931 3465 
Q 1563 3053 1563 2328 
Q 1563 1606 1931 1193 
Q 2300 781 2944 781 
Q 3303 781 3628 887 
Q 3953 994 4288 1222 
L 4288 256 
z
" transform="scale(0.015625)"/>
      <path id="DejaVuSans-Bold-4f" d="M 2719 3878 
Q 2169 3878 1866 3472 
Q 1563 3066 1563 2328 
Q 1563 1594 1866 1187 
Q 2169 781 2719 781 
Q 3272 781 3575 1187 
Q 3878 1594 3878 2328 
Q 3878 3066 3575 3472 
Q 3272 3878 2719 3878 
z
M 2719 4750 
Q 3844 4750 4481 4106 
Q 5119 3463 5119 2328 
Q 5119 1197 4481 553 
Q 3844 -91 2719 -91 
Q 1597 -91 958 553 
Q 319 1197 319 2328 
Q 319 3463 958 4106 
Q 1597 4750 2719 4750 
z
" transform="scale(0.015625)"/>
      <path id="DejaVuSans-Bold-52" d="M 2297 2597 
Q 2675 2597 2839 2737 
Q 3003 2878 3003 3200 
Q 3003 3519 2839 3656 
Q 2675 3794 2297 3794 
L 1791 3794 
L 1791 2597 
L 2297 2597 
z
M 1791 1766 
L 1791 0 
L 588 0 
L 588 4666 
L 2425 4666 
Q 3347 4666 3776 4356 
Q 4206 4047 4206 3378 
Q 4206 2916 3982 2619 
Q 3759 2322 3309 2181 
Q 3556 2125 3751 1926 
Q 3947 1728 4147 1325 
L 4800 0 
L 3519 0 
L 2950 1159 
Q 2778 1509 2601 1637 
Q 2425 1766 2131 1766 
L 1791 1766 
z
" transform="scale(0.015625)"/>
      <path id="DejaVuSans-Bold-53" d="M 3834 4519 
L 3834 3531 
Q 3450 3703 3084 3790 
Q 2719 3878 2394 3878 
Q 1963 3878 1756 3759 
Q 1550 3641 1550 3391 
Q 1550 3203 1689 3098 
Q 1828 2994 2194 2919 
L 2706 2816 
Q 3484 2659 3812 2340 
Q 4141 2022 4141 1434 
Q 4141 663 3683 286 
Q 3225 -91 2284 -91 
Q 1841 -91 1394 -6 
Q 947 78 500 244 
L 500 1259 
Q 947 1022 1364 901 
Q 1781 781 2169 781 
Q 2563 781 2772 912 
Q 2981 1044 2981 1288 
Q 2981 1506 2839 1625 
Q 2697 1744 2272 1838 
L 1806 1941 
Q 1106 2091 782 2419 
Q 459 2747 459 3303 
Q 459 4000 909 4375 
Q 1359 4750 2203 4750 
Q 2588 4750 2994 4692 
Q 3400 4634 3834 4519 
z
" transform="scale(0.015625)"/>
      <path id="DejaVuSans-Bold-49" d="M 588 4666 
L 1791 4666 
L 1791 0 
L 588 0 
L 588 4666 
z
" transform="scale(0.015625)"/>
      <path id="DejaVuSans-Bold-41" d="M 3419 850 
L 1538 850 
L 1241 0 
L 31 0 
L 1759 4666 
L 3194 4666 
L 4922 0 
L 3713 0 
L 3419 850 
z
M 1838 1716 
L 3116 1716 
L 2478 3572 
L 1838 1716 
z
" transform="scale(0.015625)"/>
      <path id="DejaVuSans-Bold-2d" d="M 347 2297 
L 2309 2297 
L 2309 1388 
L 347 1388 
L 347 2297 
z
" transform="scale(0.015625)"/>
      <path id="DejaVuSans-Bold-4d" d="M 588 4666 
L 2119 4666 
L 3181 2169 
L 4250 4666 
L 5778 4666 
L 5778 0 
L 4641 0 
L 4641 3413 
L 3566 897 
L 2803 897 
L 1728 3413 
L 1728 0 
L 588 0 
L 588 4666 
z
" transform="scale(0.015625)"/>
      <path id="DejaVuSans-Bold-e9" d="M 4031 1759 
L 4031 1441 
L 1416 1441 
Q 1456 1047 1700 850 
Q 1944 653 2381 653 
Q 2734 653 3104 758 
Q 3475 863 3866 1075 
L 3866 213 
Q 3469 63 3072 -14 
Q 2675 -91 2278 -91 
Q 1328 -91 801 392 
Q 275 875 275 1747 
Q 275 2603 792 3093 
Q 1309 3584 2216 3584 
Q 3041 3584 3536 3087 
Q 4031 2591 4031 1759 
z
M 2881 2131 
Q 2881 2450 2695 2645 
Q 2509 2841 2209 2841 
Q 1884 2841 1681 2658 
Q 1478 2475 1428 2131 
L 2881 2131 
z
M 2702 5119 
L 3586 5119 
L 2433 3944 
L 1821 3944 
L 2702 5119 
z
" transform="scale(0.015625)"/>
      <path id="DejaVuSans-Bold-74" d="M 1759 4494 
L 1759 3500 
L 2913 3500 
L 2913 2700 
L 1759 2700 
L 1759 1216 
Q 1759 972 1856 886 
Q 1953 800 2241 800 
L 2816 800 
L 2816 0 
L 1856 0 
Q 1194 0 917 276 
Q 641 553 641 1216 
L 641 2700 
L 84 2700 
L 84 3500 
L 641 3500 
L 641 4494 
L 1759 4494 
z
" transform="scale(0.015625)"/>
      <path id="DejaVuSans-Bold-68" d="M 4056 2131 
L 4056 0 
L 2931 0 
L 2931 347 
L 2931 1625 
Q 2931 2084 2911 2256 
Q 2891 2428 2841 2509 
Q 2775 2619 2662 2680 
Q 2550 2741 2406 2741 
Q 2056 2741 1856 2470 
Q 1656 2200 1656 1722 
L 1656 0 
L 538 0 
L 538 4863 
L 1656 4863 
L 1656 2988 
Q 1909 3294 2193 3439 
Q 2478 3584 2822 3584 
Q 3428 3584 3742 3212 
Q 4056 2841 4056 2131 
z
" transform="scale(0.015625)"/>
      <path id="DejaVuSans-Bold-6f" d="M 2203 2784 
Q 1831 2784 1636 2517 
Q 1441 2250 1441 1747 
Q 1441 1244 1636 976 
Q 1831 709 2203 709 
Q 2569 709 2762 976 
Q 2956 1244 2956 1747 
Q 2956 2250 2762 2517 
Q 2569 2784 2203 2784 
z
M 2203 3584 
Q 3106 3584 3614 3096 
Q 4122 2609 4122 1747 
Q 4122 884 3614 396 
Q 3106 -91 2203 -91 
Q 1297 -91 786 396 
Q 275 884 275 1747 
Q 275 2609 786 3096 
Q 1297 3584 2203 3584 
z
" transform="scale(0.015625)"/>
      <path id="DejaVuSans-Bold-64" d="M 2919 2988 
L 2919 4863 
L 4044 4863 
L 4044 0 
L 2919 0 
L 2919 506 
Q 2688 197 2409 53 
Q 2131 -91 1766 -91 
Q 1119 -91 703 423 
Q 288 938 288 1747 
Q 288 2556 703 3070 
Q 1119 3584 1766 3584 
Q 2128 3584 2408 3439 
Q 2688 3294 2919 2988 
z
M 2181 722 
Q 2541 722 2730 984 
Q 2919 1247 2919 1747 
Q 2919 2247 2730 2509 
Q 2541 2772 2181 2772 
Q 1825 2772 1636 2509 
Q 1447 2247 1447 1747 
Q 1447 1247 1636 984 
Q 1825 722 2181 722 
z
" transform="scale(0.015625)"/>
      <path id="DejaVuSans-Bold-65" d="M 4031 1759 
L 4031 1441 
L 1416 1441 
Q 1456 1047 1700 850 
Q 1944 653 2381 653 
Q 2734 653 3104 758 
Q 3475 863 3866 1075 
L 3866 213 
Q 3469 63 3072 -14 
Q 2675 -91 2278 -91 
Q 1328 -91 801 392 
Q 275 875 275 1747 
Q 275 2603 792 3093 
Q 1309 3584 2216 3584 
Q 3041 3584 3536 3087 
Q 4031 2591 4031 1759 
z
M 2881 2131 
Q 2881 2450 2695 2645 
Q 2509 2841 2209 2841 
Q 1884 2841 1681 2658 
Q 1478 2475 1428 2131 
L 2881 2131 
z
" transform="scale(0.015625)"/>
      <path id="DejaVuSans-Bold-75" d="M 500 1363 
L 500 3500 
L 1625 3500 
L 1625 3150 
Q 1625 2866 1622 2436 
Q 1619 2006 1619 1863 
Q 1619 1441 1641 1255 
Q 1663 1069 1716 984 
Q 1784 875 1895 815 
Q 2006 756 2150 756 
Q 2500 756 2700 1025 
Q 2900 1294 2900 1772 
L 2900 3500 
L 4019 3500 
L 4019 0 
L 2900 0 
L 2900 506 
Q 2647 200 2364 54 
Q 2081 -91 1741 -91 
Q 1134 -91 817 281 
Q 500 653 500 1363 
z
" transform="scale(0.015625)"/>
      <path id="DejaVuSans-Bold-71" d="M 2181 2772 
Q 1825 2772 1636 2509 
Q 1447 2247 1447 1747 
Q 1447 1247 1636 984 
Q 1825 722 2181 722 
Q 2541 722 2730 984 
Q 2919 1247 2919 1747 
Q 2919 2247 2730 2509 
Q 2541 2772 2181 2772 
z
M 2919 506 
Q 2688 197 2409 53 
Q 2131 -91 1766 -91 
Q 1119 -91 703 423 
Q 288 938 288 1747 
Q 288 2556 703 3067 
Q 1119 3578 1766 3578 
Q 2131 3578 2409 3434 
Q 2688 3291 2919 2981 
L 2919 3500 
L 4044 3500 
L 4044 -1331 
L 2919 -1331 
L 2919 506 
z
" transform="scale(0.015625)"/>
      <path id="DejaVuSans-Bold-61" d="M 2106 1575 
Q 1756 1575 1579 1456 
Q 1403 1338 1403 1106 
Q 1403 894 1545 773 
Q 1688 653 1941 653 
Q 2256 653 2472 879 
Q 2688 1106 2688 1447 
L 2688 1575 
L 2106 1575 
z
M 3816 1997 
L 3816 0 
L 2688 0 
L 2688 519 
Q 2463 200 2181 54 
Q 1900 -91 1497 -91 
Q 953 -91 614 226 
Q 275 544 275 1050 
Q 275 1666 698 1953 
Q 1122 2241 2028 2241 
L 2688 2241 
L 2688 2328 
Q 2688 2594 2478 2717 
Q 2269 2841 1825 2841 
Q 1466 2841 1156 2769 
Q 847 2697 581 2553 
L 581 3406 
Q 941 3494 1303 3539 
Q 1666 3584 2028 3584 
Q 2975 3584 3395 3211 
Q 3816 2838 3816 1997 
z
" transform="scale(0.015625)"/>
      <path id="DejaVuSans-Bold-72" d="M 3138 2547 
Q 2991 2616 2845 2648 
Q 2700 2681 2553 2681 
Q 2122 2681 1889 2404 
Q 1656 2128 1656 1613 
L 1656 0 
L 538 0 
L 538 3500 
L 1656 3500 
L 1656 2925 
Q 1872 3269 2151 3426 
Q 2431 3584 2822 3584 
Q 2878 3584 2943 3579 
Q 3009 3575 3134 3559 
L 3138 2547 
z
" transform="scale(0.015625)"/>
      <path id="DejaVuSans-Bold-69" d="M 538 3500 
L 1656 3500 
L 1656 0 
L 538 0 
L 538 3500 
z
M 538 4863 
L 1656 4863 
L 1656 3950 
L 538 3950 
L 538 4863 
z
" transform="scale(0.015625)"/>
      <path id="DejaVuSans-Bold-6c" d="M 538 4863 
L 1656 4863 
L 1656 0 
L 538 0 
L 538 4863 
z
" transform="scale(0.015625)"/>
      <path id="DejaVuSans-Bold-67" d="M 2919 594 
Q 2688 288 2409 144 
Q 2131 0 1766 0 
Q 1125 0 706 504 
Q 288 1009 288 1791 
Q 288 2575 706 3076 
Q 1125 3578 1766 3578 
Q 2131 3578 2409 3434 
Q 2688 3291 2919 2981 
L 2919 3500 
L 4044 3500 
L 4044 353 
Q 4044 -491 3511 -936 
Q 2978 -1381 1966 -1381 
Q 1638 -1381 1331 -1331 
Q 1025 -1281 716 -1178 
L 716 -306 
Q 1009 -475 1290 -558 
Q 1572 -641 1856 -641 
Q 2406 -641 2662 -400 
Q 2919 -159 2919 353 
L 2919 594 
z
M 2181 2772 
Q 1834 2772 1640 2515 
Q 1447 2259 1447 1791 
Q 1447 1309 1634 1061 
Q 1822 813 2181 813 
Q 2531 813 2725 1069 
Q 2919 1325 2919 1791 
Q 2919 2259 2725 2515 
Q 2531 2772 2181 2772 
z
" transform="scale(0.015625)"/>
      <path id="DejaVuSans-Bold-28" d="M 2413 -844 
L 1484 -844 
Q 1006 -72 778 623 
Q 550 1319 550 2003 
Q 550 2688 779 3389 
Q 1009 4091 1484 4856 
L 2413 4856 
Q 2013 4116 1813 3408 
Q 1613 2700 1613 2009 
Q 1613 1319 1811 609 
Q 2009 -100 2413 -844 
z
" transform="scale(0.015625)"/>
      <path id="DejaVuSans-Bold-63" d="M 3366 3391 
L 3366 2478 
Q 3138 2634 2908 2709 
Q 2678 2784 2431 2784 
Q 1963 2784 1702 2511 
Q 1441 2238 1441 1747 
Q 1441 1256 1702 982 
Q 1963 709 2431 709 
Q 2694 709 2930 787 
Q 3166 866 3366 1019 
L 3366 103 
Q 3103 6 2833 -42 
Q 2563 -91 2291 -91 
Q 1344 -91 809 395 
Q 275 881 275 1747 
Q 275 2613 809 3098 
Q 1344 3584 2291 3584 
Q 2566 3584 2833 3536 
Q 3100 3488 3366 3391 
z
" transform="scale(0.015625)"/>
      <path id="DejaVuSans-Bold-73" d="M 3272 3391 
L 3272 2541 
Q 2913 2691 2578 2766 
Q 2244 2841 1947 2841 
Q 1628 2841 1473 2761 
Q 1319 2681 1319 2516 
Q 1319 2381 1436 2309 
Q 1553 2238 1856 2203 
L 2053 2175 
Q 2913 2066 3209 1816 
Q 3506 1566 3506 1031 
Q 3506 472 3093 190 
Q 2681 -91 1863 -91 
Q 1516 -91 1145 -36 
Q 775 19 384 128 
L 384 978 
Q 719 816 1070 734 
Q 1422 653 1784 653 
Q 2113 653 2278 743 
Q 2444 834 2444 1013 
Q 2444 1163 2330 1236 
Q 2216 1309 1875 1350 
L 1678 1375 
Q 931 1469 631 1722 
Q 331 1975 331 2491 
Q 331 3047 712 3315 
Q 1094 3584 1881 3584 
Q 2191 3584 2531 3537 
Q 2872 3491 3272 3391 
z
" transform="scale(0.015625)"/>
      <path id="DejaVuSans-Bold-d7" d="M 4563 3359 
L 3206 2003 
L 4563 653 
L 4038 128 
L 2681 1478 
L 1325 128 
L 800 653 
L 2156 2003 
L 800 3359 
L 1325 3884 
L 2681 2528 
L 4038 3884 
L 4563 3359 
z
" transform="scale(0.015625)"/>
      <path id="DejaVuSans-Bold-29" d="M 513 -844 
Q 913 -100 1113 609 
Q 1313 1319 1313 2009 
Q 1313 2700 1113 3408 
Q 913 4116 513 4856 
L 1441 4856 
Q 1916 4091 2145 3389 
Q 2375 2688 2375 2003 
Q 2375 1319 2147 623 
Q 1919 -72 1441 -844 
L 513 -844 
z
" transform="scale(0.015625)"/>
      <path id="DejaVuSans-Bold-2014" d="M 344 2156 
L 6056 2156 
L 6056 1350 
L 344 1350 
L 344 2156 
z
" transform="scale(0.015625)"/>
      <path id="DejaVuSans-Bold-6e" d="M 4056 2131 
L 4056 0 
L 2931 0 
L 2931 347 
L 2931 1631 
Q 2931 2084 2911 2256 
Q 2891 2428 2841 2509 
Q 2775 2619 2662 2680 
Q 2550 2741 2406 2741 
Q 2056 2741 1856 2470 
Q 1656 2200 1656 1722 
L 1656 0 
L 538 0 
L 538 3500 
L 1656 3500 
L 1656 2988 
Q 1909 3294 2193 3439 
Q 2478 3584 2822 3584 
Q 3428 3584 3742 3212 
Q 4056 2841 4056 2131 
z
" transform="scale(0.015625)"/>
      <path id="DejaVuSans-Bold-3a" d="M 716 3500 
L 1844 3500 
L 1844 2291 
L 716 2291 
L 716 3500 
z
M 716 1209 
L 1844 1209 
L 1844 0 
L 716 0 
L 716 1209 
z
" transform="scale(0.015625)"/>
      <path id="DejaVuSans-Bold-36" d="M 2316 2303 
Q 2000 2303 1842 2098 
Q 1684 1894 1684 1484 
Q 1684 1075 1842 870 
Q 2000 666 2316 666 
Q 2634 666 2792 870 
Q 2950 1075 2950 1484 
Q 2950 1894 2792 2098 
Q 2634 2303 2316 2303 
z
M 3803 4544 
L 3803 3681 
Q 3506 3822 3243 3889 
Q 2981 3956 2731 3956 
Q 2194 3956 1894 3657 
Q 1594 3359 1544 2772 
Q 1750 2925 1990 3001 
Q 2231 3078 2516 3078 
Q 3231 3078 3670 2659 
Q 4109 2241 4109 1563 
Q 4109 813 3618 361 
Q 3128 -91 2303 -91 
Q 1394 -91 895 523 
Q 397 1138 397 2266 
Q 397 3422 980 4083 
Q 1563 4744 2578 4744 
Q 2900 4744 3203 4694 
Q 3506 4644 3803 4544 
z
" transform="scale(0.015625)"/>
      <path id="DejaVuSans-Bold-32" d="M 1844 884 
L 3897 884 
L 3897 0 
L 506 0 
L 506 884 
L 2209 2388 
Q 2438 2594 2547 2791 
Q 2656 2988 2656 3200 
Q 2656 3528 2436 3728 
Q 2216 3928 1850 3928 
Q 1569 3928 1234 3808 
Q 900 3688 519 3450 
L 519 4475 
Q 925 4609 1322 4679 
Q 1719 4750 2100 4750 
Q 2938 4750 3402 4381 
Q 3866 4013 3866 3353 
Q 3866 2972 3669 2642 
Q 3472 2313 2841 1759 
L 1844 884 
z
" transform="scale(0.015625)"/>
      <path id="DejaVuSans-Bold-2c" d="M 653 1209 
L 1778 1209 
L 1778 256 
L 1006 -909 
L 341 -909 
L 653 256 
L 653 1209 
z
" transform="scale(0.015625)"/>
      <path id="DejaVuSans-Bold-70" d="M 1656 506 
L 1656 -1331 
L 538 -1331 
L 538 3500 
L 1656 3500 
L 1656 2988 
Q 1888 3294 2169 3439 
Q 2450 3584 2816 3584 
Q 3463 3584 3878 3070 
Q 4294 2556 4294 1747 
Q 4294 938 3878 423 
Q 3463 -91 2816 -91 
Q 2450 -91 2169 54 
Q 1888 200 1656 506 
z
M 2400 2772 
Q 2041 2772 1848 2508 
Q 1656 2244 1656 1747 
Q 1656 1250 1848 986 
Q 2041 722 2400 722 
Q 2759 722 2948 984 
Q 3138 1247 3138 1747 
Q 3138 2247 2948 2509 
Q 2759 2772 2400 2772 
z
" transform="scale(0.015625)"/>
      <path id="DejaVuSans-Bold-35" d="M 678 4666 
L 3669 4666 
L 3669 3781 
L 1638 3781 
L 1638 3059 
Q 1775 3097 1914 3117 
Q 2053 3138 2203 3138 
Q 3056 3138 3531 2711 
Q 4006 2284 4006 1522 
Q 4006 766 3489 337 
Q 2972 -91 2053 -91 
Q 1656 -91 1267 -14 
Q 878 63 494 219 
L 494 1166 
Q 875 947 1217 837 
Q 1559 728 1863 728 
Q 2300 728 2551 942 
Q 2803 1156 2803 1522 
Q 2803 1891 2551 2103 
Q 2300 2316 1863 2316 
Q 1603 2316 1309 2248 
Q 1016 2181 678 2041 
L 678 4666 
z
" transform="scale(0.015625)"/>
      <path id="DejaVuSans-Bold-34" d="M 2356 3675 
L 1038 1722 
L 2356 1722 
L 2356 3675 
z
M 2156 4666 
L 3494 4666 
L 3494 1722 
L 4159 1722 
L 4159 850 
L 3494 850 
L 3494 0 
L 2356 0 
L 2356 850 
L 288 850 
L 288 1881 
L 2156 4666 
z
" transform="scale(0.015625)"/>
     </defs>
     <use xlink:href="#DejaVuSans-Bold-43"/>
     <use xlink:href="#DejaVuSans-Bold-4f" transform="translate(73.388672 0)"/>
     <use xlink:href="#DejaVuSans-Bold-52" transform="translate(158.398438 0)"/>
     <use xlink:href="#DejaVuSans-Bold-53" transform="translate(235.400391 0)"/>
     <use xlink:href="#DejaVuSans-Bold-49" transform="translate(307.421875 0)"/>
     <use xlink:href="#DejaVuSans-Bold-43" transform="translate(344.628906 0)"/>
     <use xlink:href="#DejaVuSans-Bold-41" transform="translate(418.017578 0)"/>
     <use xlink:href="#DejaVuSans-Bold-20" transform="translate(495.410156 0)"/>
     <use xlink:href="#DejaVuSans-Bold-2d" transform="translate(530.224609 0)"/>
     <use xlink:href="#DejaVuSans-Bold-20" transform="translate(571.728516 0)"/>
     <use xlink:href="#DejaVuSans-Bold-4d" transform="translate(606.542969 0)"/>
     <use xlink:href="#DejaVuSans-Bold-e9" transform="translate(706.054688 0)"/>
     <use xlink:href="#DejaVuSans-Bold-74" transform="translate(773.876953 0)"/>
     <use xlink:href="#DejaVuSans-Bold-68" transform="translate(821.679688 0)"/>
     <use xlink:href="#DejaVuSans-Bold-6f" transform="translate(892.871094 0)"/>
     <use xlink:href="#DejaVuSans-Bold-64" transform="translate(961.572266 0)"/>
     <use xlink:href="#DejaVuSans-Bold-65" transform="translate(1033.154297 0)"/>
     <use xlink:href="#DejaVuSans-Bold-20" transform="translate(1100.976562 0)"/>
     <use xlink:href="#DejaVuSans-Bold-64" transform="translate(1135.791016 0)"/>
     <use xlink:href="#DejaVuSans-Bold-75" transform="translate(1207.373047 0)"/>
     <use xlink:href="#DejaVuSans-Bold-20" transform="translate(1278.564453 0)"/>
     <use xlink:href="#DejaVuSans-Bold-71" transform="translate(1313.378906 0)"/>
     <use xlink:href="#DejaVuSans-Bold-75" transform="translate(1384.960938 0)"/>
     <use xlink:href="#DejaVuSans-Bold-61" transform="translate(1456.152344 0)"/>
     <use xlink:href="#DejaVuSans-Bold-64" transform="translate(1523.632812 0)"/>
     <use xlink:href="#DejaVuSans-Bold-72" transform="translate(1595.214844 0)"/>
     <use xlink:href="#DejaVuSans-Bold-69" transform="translate(1644.53125 0)"/>
     <use xlink:href="#DejaVuSans-Bold-6c" transform="translate(1678.808594 0)"/>
     <use xlink:href="#DejaVuSans-Bold-6c" transform="translate(1713.085938 0)"/>
     <use xlink:href="#DejaVuSans-Bold-61" transform="translate(1747.363281 0)"/>
     <use xlink:href="#DejaVuSans-Bold-67" transform="translate(1814.84375 0)"/>
     <use xlink:href="#DejaVuSans-Bold-65" transform="translate(1886.425781 0)"/>
     <use xlink:href="#DejaVuSans-Bold-20" transform="translate(1954.248047 0)"/>
     <use xlink:href="#DejaVuSans-Bold-28" transform="translate(1989.0625 0)"/>
     <use xlink:href="#DejaVuSans-Bold-63" transform="translate(2034.765625 0)"/>
     <use xlink:href="#DejaVuSans-Bold-61" transform="translate(2094.042969 0)"/>
     <use xlink:href="#DejaVuSans-Bold-72" transform="translate(2161.523438 0)"/>
     <use xlink:href="#DejaVuSans-Bold-72" transform="translate(2210.839844 0)"/>
     <use xlink:href="#DejaVuSans-Bold-e9" transform="translate(2260.15625 0)"/>
     <use xlink:href="#DejaVuSans-Bold-73" transform="translate(2327.978516 0)"/>
     <use xlink:href="#DejaVuSans-Bold-20" transform="translate(2387.5 0)"/>
     <use xlink:href="#DejaVuSans-Bold-64" transform="translate(2422.314453 0)"/>
     <use xlink:href="#DejaVuSans-Bold-65" transform="translate(2493.896484 0)"/>
     <use xlink:href="#DejaVuSans-Bold-20" transform="translate(2561.71875 0)"/>
     <use xlink:href="#DejaVuSans-Bold-31" transform="translate(2596.533203 0)"/>
     <use xlink:href="#DejaVuSans-Bold-30" transform="translate(2666.113281 0)"/>
     <use xlink:href="#DejaVuSans-Bold-20" transform="translate(2735.693359 0)"/>
     <use xlink:href="#DejaVuSans-Bold-6b" transform="translate(2770.507812 0)"/>
     <use xlink:href="#DejaVuSans-Bold-6d" transform="translate(2837.011719 0)"/>
     <use xlink:href="#DejaVuSans-Bold-20" transform="translate(2941.210938 0)"/>
     <use xlink:href="#DejaVuSans-Bold-d7" transform="translate(2976.025391 0)"/>
     <use xlink:href="#DejaVuSans-Bold-20" transform="translate(3059.814453 0)"/>
     <use xlink:href="#DejaVuSans-Bold-31" transform="translate(3094.628906 0)"/>
     <use xlink:href="#DejaVuSans-Bold-30" transform="translate(3164.208984 0)"/>
     <use xlink:href="#DejaVuSans-Bold-20" transform="translate(3233.789062 0)"/>
     <use xlink:href="#DejaVuSans-Bold-6b" transform="translate(3268.603516 0)"/>
     <use xlink:href="#DejaVuSans-Bold-6d" transform="translate(3335.107422 0)"/>
     <use xlink:href="#DejaVuSans-Bold-29" transform="translate(3439.306641 0)"/>
     <use xlink:href="#DejaVuSans-Bold-20" transform="translate(3485.009766 0)"/>
     <use xlink:href="#DejaVuSans-Bold-2014" transform="translate(3519.824219 0)"/>
     <use xlink:href="#DejaVuSans-Bold-20" transform="translate(3619.824219 0)"/>
     <use xlink:href="#DejaVuSans-Bold-65" transform="translate(3654.638672 0)"/>
     <use xlink:href="#DejaVuSans-Bold-6e" transform="translate(3722.460938 0)"/>
     <use xlink:href="#DejaVuSans-Bold-74" transform="translate(3793.652344 0)"/>
     <use xlink:href="#DejaVuSans-Bold-69" transform="translate(3841.455078 0)"/>
     <use xlink:href="#DejaVuSans-Bold-65" transform="translate(3875.732422 0)"/>
     <use xlink:href="#DejaVuSans-Bold-72" transform="translate(3943.554688 0)"/>
     <use xlink:href="#DejaVuSans-Bold-73" transform="translate(3992.871094 0)"/>
     <use xlink:href="#DejaVuSans-Bold-3a" transform="translate(4052.392578 0)"/>
     <use xlink:href="#DejaVuSans-Bold-20" transform="translate(4092.382812 0)"/>
     <use xlink:href="#DejaVuSans-Bold-36" transform="translate(4127.197266 0)"/>
     <use xlink:href="#DejaVuSans-Bold-32" transform="translate(4196.777344 0)"/>
     <use xlink:href="#DejaVuSans-Bold-2c" transform="translate(4266.357422 0)"/>
     <use xlink:href="#DejaVuSans-Bold-20" transform="translate(4304.345703 0)"/>
     <use xlink:href="#DejaVuSans-Bold-70" transform="translate(4339.160156 0)"/>
     <use xlink:href="#DejaVuSans-Bold-61" transform="translate(4410.742188 0)"/>
     <use xlink:href="#DejaVuSans-Bold-72" transform="translate(4478.222656 0)"/>
     <use xlink:href="#DejaVuSans-Bold-74" transform="translate(4527.539062 0)"/>
     <use xlink:href="#DejaVuSans-Bold-69" transform="translate(4575.341797 0)"/>
     <use xlink:href="#DejaVuSans-Bold-65" transform="translate(4609.619141 0)"/>
     <use xlink:href="#DejaVuSans-Bold-6c" transform="translate(4677.441406 0)"/>
     <use xlink:href="#DejaVuSans-Bold-73" transform="translate(4711.71875 0)"/>
     <use xlink:href="#DejaVuSans-Bold-3a" transform="translate(4771.240234 0)"/>
     <use xlink:href="#DejaVuSans-Bold-20" transform="translate(4811.230469 0)"/>
     <use xlink:href="#DejaVuSans-Bold-35" transform="translate(4846.044922 0)"/>
     <use xlink:href="#DejaVuSans-Bold-34" transform="translate(4915.625 0)"/>
    </g>
   </g>
  </g>
 </g>
 <defs>
  <clipPath id="pf9b76d651f">
   <rect x="209.484095" y="41.597187" width="492.757122" height="1060.88"/>
  </clipPath>
 </defs>
</svg>
