<?xml version="1.0" encoding="utf-8" standalone="no"?>
<!DOCTYPE svg PUBLIC "-//W3C//DTD SVG 1.1//EN"
  "http://www.w3.org/Graphics/SVG/1.1/DTD/svg11.dtd">
<svg xmlns:xlink="http://www.w3.org/1999/xlink" width="1000pt" height="1280pt" viewBox="0 0 1000 1280" xmlns="http://www.w3.org/2000/svg" version="1.1" class="corsica-grid">
 <defs>
  <style type="text/css">*{stroke-linejoin: round; stroke-linecap: butt}</style>
 </defs>
 <g id="figure_1">
  <g id="patch_1">
   <path d="M 0 1280 
L 1000 1280 
L 1000 0 
L 0 0 
z
" style="fill: var(--color-base-100)"/>
  </g>
  <g id="axes_1">
   <g id="patch_2">
    <path d="M 250 1050 
L 800 1050 
L 800 80 
L 250 80 
z
" style="fill: var(--color-base-100)"/>
   </g>
   <g id="PatchCollection_1">
    <path d="M 623 1035 
L 620 1037 
L 615 1033 
L 617 1030 
L 623 1033 
z
" style="fill: var(--color-primary-content); stroke: var(--color-primary); stroke-width: 2"/>
    <path d="M 687 725 
L 687 733 
L 689 748 
L 683 762 
L 686 768 
L 685 775 
L 689 782 
L 688 791 
L 689 800 
L 686 814 
L 687 818 
L 685 830 
L 677 833 
L 673 839 
L 675 844 
L 680 852 
L 679 855 
L 670 866 
L 665 863 
L 662 866 
L 661 870 
L 665 872 
L 661 878 
L 657 875 
L 652 878 
L 644 871 
L 643 878 
L 639 882 
L 635 883 
L 632 891 
L 634 896 
L 638 900 
L 644 893 
L 646 888 
L 650 886 
L 656 888 
L 662 893 
L 672 891 
L 665 903 
L 662 905 
L 663 911 
L 659 915 
L 651 916 
L 641 924 
L 634 933 
L 628 933 
L 628 938 
L 632 939 
L 629 948 
L 625 951 
L 628 954 
L 634 955 
L 632 966 
L 629 967 
L 629 974 
L 624 973 
L 613 985 
L 604 988 
L 604 992 
L 607 999 
L 606 1009 
L 614 1001 
L 624 997 
L 621 1007 
L 617 1009 
L 610 1019 
L 609 1023 
L 603 1030 
L 602 1035 
L 592 1036 
L 584 1036 
L 581 1028 
L 578 1024 
L 568 1023 
L 557 1017 
L 544 1019 
L 543 1014 
L 545 1007 
L 551 1003 
L 549 999 
L 557 991 
L 556 989 
L 547 988 
L 544 984 
L 539 988 
L 535 987 
L 531 982 
L 533 973 
L 533 967 
L 524 977 
L 518 977 
L 509 972 
L 506 967 
L 501 967 
L 497 961 
L 491 965 
L 482 957 
L 472 959 
L 469 955 
L 464 954 
L 461 948 
L 454 947 
L 447 950 
L 445 947 
L 448 942 
L 443 938 
L 438 940 
L 428 941 
L 426 937 
L 431 932 
L 431 927 
L 427 926 
L 421 930 
L 416 928 
L 411 930 
L 405 920 
L 401 921 
L 395 919 
L 388 912 
L 382 915 
L 376 915 
L 377 911 
L 381 907 
L 379 903 
L 374 898 
L 380 894 
L 379 889 
L 370 891 
L 368 885 
L 376 884 
L 374 878 
L 375 867 
L 370 866 
L 373 861 
L 369 859 
L 372 855 
L 370 852 
L 360 853 
L 356 849 
L 360 846 
L 363 849 
L 371 847 
L 374 844 
L 379 844 
L 392 837 
L 397 840 
L 404 837 
L 415 835 
L 418 833 
L 426 832 
L 427 823 
L 420 820 
L 419 813 
L 413 808 
L 407 808 
L 403 810 
L 396 802 
L 389 805 
L 383 800 
L 386 796 
L 394 793 
L 397 790 
L 396 785 
L 393 785 
L 385 777 
L 381 777 
L 376 781 
L 372 786 
L 368 789 
L 362 789 
L 365 782 
L 362 780 
L 364 769 
L 358 767 
L 360 760 
L 364 765 
L 369 765 
L 374 762 
L 372 758 
L 377 756 
L 382 758 
L 388 755 
L 385 747 
L 389 745 
L 386 741 
L 388 736 
L 395 734 
L 402 736 
L 406 739 
L 409 737 
L 413 730 
L 412 725 
L 407 720 
L 416 719 
L 416 711 
L 422 704 
L 419 699 
L 407 700 
L 407 698 
L 414 688 
L 415 674 
L 419 672 
L 423 673 
L 429 667 
L 436 668 
L 439 665 
L 435 661 
L 439 658 
L 438 653 
L 441 648 
L 438 644 
L 436 636 
L 442 631 
L 442 638 
L 443 646 
L 448 642 
L 453 642 
L 459 648 
L 463 650 
L 472 648 
L 479 641 
L 477 633 
L 482 629 
L 481 623 
L 488 618 
L 493 621 
L 501 616 
L 507 619 
L 512 616 
L 512 613 
L 518 606 
L 525 607 
L 529 606 
L 532 601 
L 540 600 
L 543 603 
L 551 602 
L 559 599 
L 571 598 
L 575 599 
L 580 597 
L 583 592 
L 592 590 
L 598 586 
L 599 583 
L 595 574 
L 598 565 
L 604 566 
L 607 561 
L 610 552 
L 617 552 
L 620 547 
L 625 545 
L 628 542 
L 634 542 
L 648 535 
L 658 544 
L 665 545 
L 672 540 
L 675 541 
L 679 549 
L 689 550 
L 691 561 
L 695 562 
L 700 568 
L 703 576 
L 707 578 
L 711 571 
L 716 568 
L 720 563 
L 720 553 
L 728 543 
L 731 538 
L 728 525 
L 728 514 
L 730 502 
L 727 496 
L 721 490 
L 719 484 
L 715 477 
L 725 462 
L 729 457 
L 724 453 
L 722 442 
L 720 436 
L 735 426 
L 736 419 
L 732 417 
L 737 407 
L 732 403 
L 731 399 
L 733 393 
L 729 387 
L 730 383 
L 729 377 
L 737 370 
L 744 371 
L 747 369 
L 758 370 
L 762 369 
L 766 366 
L 770 372 
L 774 374 
L 780 380 
L 786 383 
L 782 391 
L 781 397 
L 784 407 
L 789 415 
L 788 421 
L 790 426 
L 791 443 
L 793 449 
L 791 454 
L 795 460 
L 796 469 
L 794 475 
L 797 480 
L 800 497 
L 799 504 
L 790 520 
L 788 527 
L 789 532 
L 786 540 
L 786 543 
L 783 551 
L 781 567 
L 778 572 
L 778 580 
L 779 587 
L 785 601 
L 791 611 
L 810 637 
L 815 646 
L 819 661 
L 819 675 
L 817 688 
L 818 700 
L 822 715 
L 822 728 
L 823 736 
L 821 745 
L 818 765 
L 819 774 
L 821 787 
L 823 797 
L 827 807 
L 831 825 
L 831 834 
L 829 853 
L 829 866 
L 831 877 
L 830 907 
L 831 917 
L 828 941 
L 819 952 
L 806 972 
L 788 1000 
L 778 1013 
L 770 1025 
L 764 1037 
L 764 1045 
L 766 1054 
L 764 1063 
L 760 1072 
L 757 1086 
z
" style="fill: var(--color-primary-content); stroke: var(--color-primary); stroke-width: 2"/>
   </g>
   <!-- Grid lines -->
   <g id="grid_lines">
    <!-- Vertical lines -->
    <path d="M 250 1050 L 250 80" style="fill: none; stroke: var(--color-primary); stroke-opacity: 0.3; stroke-dasharray: 8,4"/>
    <path d="M 311.11 1050 L 311.11 80" style="fill: none; stroke: var(--color-primary); stroke-opacity: 0.3; stroke-dasharray: 8,4"/>
    <path d="M 372.22 1050 L 372.22 80" style="fill: none; stroke: var(--color-primary); stroke-opacity: 0.3; stroke-dasharray: 8,4"/>
    <path d="M 433.33 1050 L 433.33 80" style="fill: none; stroke: var(--color-primary); stroke-opacity: 0.3; stroke-dasharray: 8,4"/>
    <path d="M 494.44 1050 L 494.44 80" style="fill: none; stroke: var(--color-primary); stroke-opacity: 0.3; stroke-dasharray: 8,4"/>
    <path d="M 555.56 1050 L 555.56 80" style="fill: none; stroke: var(--color-primary); stroke-opacity: 0.3; stroke-dasharray: 8,4"/>
    <path d="M 616.67 1050 L 616.67 80" style="fill: none; stroke: var(--color-primary); stroke-opacity: 0.3; stroke-dasharray: 8,4"/>
    <path d="M 677.78 1050 L 677.78 80" style="fill: none; stroke: var(--color-primary); stroke-opacity: 0.3; stroke-dasharray: 8,4"/>
    <path d="M 738.89 1050 L 738.89 80" style="fill: none; stroke: var(--color-primary); stroke-opacity: 0.3; stroke-dasharray: 8,4"/>
    <path d="M 800 1050 L 800 80" style="fill: none; stroke: var(--color-primary); stroke-opacity: 0.3; stroke-dasharray: 8,4"/>
    <!-- Horizontal lines -->
    <path d="M 250 1050 L 800 1050" style="fill: none; stroke: var(--color-primary); stroke-opacity: 0.3; stroke-dasharray: 8,4"/>
    <path d="M 250 993.33 L 800 993.33" style="fill: none; stroke: var(--color-primary); stroke-opacity: 0.3; stroke-dasharray: 8,4"/>
    <path d="M 250 936.67 L 800 936.67" style="fill: none; stroke: var(--color-primary); stroke-opacity: 0.3; stroke-dasharray: 8,4"/>
    <path d="M 250 880 L 800 880" style="fill: none; stroke: var(--color-primary); stroke-opacity: 0.3; stroke-dasharray: 8,4"/>
    <path d="M 250 823.33 L 800 823.33" style="fill: none; stroke: var(--color-primary); stroke-opacity: 0.3; stroke-dasharray: 8,4"/>
    <path d="M 250 766.67 L 800 766.67" style="fill: none; stroke: var(--color-primary); stroke-opacity: 0.3; stroke-dasharray: 8,4"/>
    <path d="M 250 710 L 800 710" style="fill: none; stroke: var(--color-primary); stroke-opacity: 0.3; stroke-dasharray: 8,4"/>
    <path d="M 250 653.33 L 800 653.33" style="fill: none; stroke: var(--color-primary); stroke-opacity: 0.3; stroke-dasharray: 8,4"/>
    <path d="M 250 596.67 L 800 596.67" style="fill: none; stroke: var(--color-primary); stroke-opacity: 0.3; stroke-dasharray: 8,4"/>
    <path d="M 250 540 L 800 540" style="fill: none; stroke: var(--color-primary); stroke-opacity: 0.3; stroke-dasharray: 8,4"/>
    <path d="M 250 483.33 L 800 483.33" style="fill: none; stroke: var(--color-primary); stroke-opacity: 0.3; stroke-dasharray: 8,4"/>
    <path d="M 250 426.67 L 800 426.67" style="fill: none; stroke: var(--color-primary); stroke-opacity: 0.3; stroke-dasharray: 8,4"/>
    <path d="M 250 370 L 800 370" style="fill: none; stroke: var(--color-primary); stroke-opacity: 0.3; stroke-dasharray: 8,4"/>
    <path d="M 250 313.33 L 800 313.33" style="fill: none; stroke: var(--color-primary); stroke-opacity: 0.3; stroke-dasharray: 8,4"/>
    <path d="M 250 256.67 L 800 256.67" style="fill: none; stroke: var(--color-primary); stroke-opacity: 0.3; stroke-dasharray: 8,4"/>
    <path d="M 250 200 L 800 200" style="fill: none; stroke: var(--color-primary); stroke-opacity: 0.3; stroke-dasharray: 8,4"/>
    <path d="M 250 143.33 L 800 143.33" style="fill: none; stroke: var(--color-primary); stroke-opacity: 0.3; stroke-dasharray: 8,4"/>
    <path d="M 250 86.67 L 800 86.67" style="fill: none; stroke: var(--color-primary); stroke-opacity: 0.3; stroke-dasharray: 8,4"/>
    <path d="M 250 80 L 800 80" style="fill: none; stroke: var(--color-primary); stroke-opacity: 0.3; stroke-dasharray: 8,4"/>
   </g>
   <!-- Axis labels -->
   <g id="axis_labels" class="corsica-axis-labels-group">
    <!-- X-axis label (Longitude) -->
    <text x="525" y="1220" text-anchor="middle" class="corsica-grid-text corsica-axis-label">Longitude (°)</text>
    
    <!-- Y-axis label (Latitude) - rotated -->
    <text x="120" y="565" text-anchor="middle" transform="rotate(-90, 120, 565)" class="corsica-grid-text corsica-axis-label">Latitude (°)</text>
    
    <!-- X-axis tick labels (Longitude values) -->
    <!-- All vertical line labels -->
    <text x="250" y="1080" text-anchor="middle" class="corsica-grid-text corsica-axis-value">8.52</text>
    <text x="311.11" y="1080" text-anchor="middle" class="corsica-grid-text corsica-axis-value">8.642</text>
    <text x="372.22" y="1080" text-anchor="middle" class="corsica-grid-text corsica-axis-value">8.763</text>
    <text x="433.33" y="1080" text-anchor="middle" class="corsica-grid-text corsica-axis-value">8.885</text>
    <text x="494.44" y="1080" text-anchor="middle" class="corsica-grid-text corsica-axis-value">9.006</text>
    <text x="555.56" y="1080" text-anchor="middle" class="corsica-grid-text corsica-axis-value">9.128</text>
    <text x="616.67" y="1080" text-anchor="middle" class="corsica-grid-text corsica-axis-value">9.25</text>
    <text x="677.78" y="1080" text-anchor="middle" class="corsica-grid-text corsica-axis-value">9.371</text>
    <text x="738.89" y="1080" text-anchor="middle" class="corsica-grid-text corsica-axis-value">9.493</text>
    <text x="800" y="1080" text-anchor="middle" class="corsica-grid-text corsica-axis-value">9.614</text>
    
    <!-- Y-axis tick labels (Latitude values) -->
    <!-- All horizontal line labels, from bottom to top -->
    <text x="230" y="1050" text-anchor="end" dominant-baseline="middle" class="corsica-grid-text corsica-axis-value">41.342</text>
    <text x="230" y="993.33" text-anchor="end" dominant-baseline="middle" class="corsica-grid-text corsica-axis-value">41.432</text>
    <text x="230" y="936.67" text-anchor="end" dominant-baseline="middle" class="corsica-grid-text corsica-axis-value">41.522</text>
    <text x="230" y="880" text-anchor="end" dominant-baseline="middle" class="corsica-grid-text corsica-axis-value">41.612</text>
    <text x="230" y="823.33" text-anchor="end" dominant-baseline="middle" class="corsica-grid-text corsica-axis-value">41.703</text>
    <text x="230" y="766.67" text-anchor="end" dominant-baseline="middle" class="corsica-grid-text corsica-axis-value">41.793</text>
    <text x="230" y="710" text-anchor="end" dominant-baseline="middle" class="corsica-grid-text corsica-axis-value">41.883</text>
    <text x="230" y="653.33" text-anchor="end" dominant-baseline="middle" class="corsica-grid-text corsica-axis-value">41.973</text>
    <text x="230" y="596.67" text-anchor="end" dominant-baseline="middle" class="corsica-grid-text corsica-axis-value">42.063</text>
    <text x="230" y="540" text-anchor="end" dominant-baseline="middle" class="corsica-grid-text corsica-axis-value">42.153</text>
    <text x="230" y="483.33" text-anchor="end" dominant-baseline="middle" class="corsica-grid-text corsica-axis-value">42.243</text>
    <text x="230" y="426.67" text-anchor="end" dominant-baseline="middle" class="corsica-grid-text corsica-axis-value">42.333</text>
    <text x="230" y="370" text-anchor="end" dominant-baseline="middle" class="corsica-grid-text corsica-axis-value">42.423</text>
    <text x="230" y="313.33" text-anchor="end" dominant-baseline="middle" class="corsica-grid-text corsica-axis-value">42.513</text>
    <text x="230" y="256.67" text-anchor="end" dominant-baseline="middle" class="corsica-grid-text corsica-axis-value">42.603</text>
    <text x="230" y="200" text-anchor="end" dominant-baseline="middle" class="corsica-grid-text corsica-axis-value">42.694</text>
    <text x="230" y="143.33" text-anchor="end" dominant-baseline="middle" class="corsica-grid-text corsica-axis-value">42.784</text>
    <text x="230" y="86.67" text-anchor="end" dominant-baseline="middle" class="corsica-grid-text corsica-axis-value">42.874</text>
    <text x="230" y="80" text-anchor="end" dominant-baseline="middle" class="corsica-grid-text corsica-axis-value">43.054</text>
   </g>
  </g>
 </g>
</svg>
